<?xml version="1.0" encoding="UTF-8" standalone="no"?>
<!-- Created with Inkscape (http://www.inkscape.org/) -->

<svg
   width="158.59288mm"
   height="148.76158mm"
   viewBox="0 0 158.59288 148.76158"
   version="1.1"
   id="svg1"
   inkscape:version="1.4 (86a8ad7, 2024-10-11)"
   sodipodi:docname="optimized_bill_icon.svg"
   xmlns:inkscape="http://www.inkscape.org/namespaces/inkscape"
   xmlns:sodipodi="http://sodipodi.sourceforge.net/DTD/sodipodi-0.dtd"
   xmlns="http://www.w3.org/2000/svg"
   xmlns:svg="http://www.w3.org/2000/svg">
  <sodipodi:namedview
     id="namedview1"
     pagecolor="#ffffff"
     bordercolor="#000000"
     borderopacity="0.25"
     inkscape:showpageshadow="2"
     inkscape:pageopacity="0.0"
     inkscape:pagecheckerboard="0"
     inkscape:deskcolor="#d1d1d1"
     inkscape:document-units="mm"
     inkscape:zoom="1"
     inkscape:cx="261.5"
     inkscape:cy="273.5"
     inkscape:window-width="1840"
     inkscape:window-height="1057"
     inkscape:window-x="-8"
     inkscape:window-y="599"
     inkscape:window-maximized="1"
     inkscape:current-layer="svg1" />
  <defs
     id="defs1">
    <inkscape:path-effect
       effect="fill_between_many"
       method="originald"
       linkedpaths="#g2,0,1"
       id="path-effect8"
       is_visible="true"
       lpeversion="0"
       join="true"
       close="true"
       autoreverse="true" />
  </defs>
  <g
     inkscape:label="Layer 1"
     inkscape:groupmode="layer"
     id="layer1"
     transform="translate(-26.766184,-74.249407)">
    <path
       inkscape:original-d="M 0,0"
       inkscape:path-effect="#path-effect8"
       d="M 0,0"
       id="path8" />
    <path
       style="fill:#fb8f27;stroke-width:0.184392"
       d="m 146.08936,222.69297 c -2.91839,-1.27431 -4.22808,-6.57177 -8.07108,-5.22583 -2.39792,2.64586 -4.80625,6.21751 -9.00071,5.25316 -4.23793,0.17444 -5.23781,-6.07603 -9.41731,-5.38325 -3.73486,0.80569 -5.3866,5.48858 -9.57892,5.35006 -5.31768,1.29662 -7.02259,-6.03465 -12.175131,-5.81591 -3.779626,1.89632 -6.396149,6.92207 -11.251527,5.81209 -4.414876,0.0912 -6.058235,-6.54019 -10.686252,-5.30078 -3.4601,0.81381 -4.387563,6.16971 -8.383222,5.21351 -3.457268,-0.18426 -7.245119,0.47893 -10.504866,-0.21168 -2.055008,-2.42969 -0.549332,-6.00305 -0.998578,-8.93891 0.02807,-14.32961 0.05614,-28.65923 0.08421,-42.98885 -13.414461,0.11096 -26.22078,-9.79931 -28.742029,-23.14985 -2.388638,-12.73602 4.100783,-27.29514 16.405197,-32.42351 3.722098,-3.34153 13.989901,0.50228 12.088082,-6.77099 0.198588,-10.665402 -0.115433,-21.45393 0.403227,-32.042463 1.383762,-2.813872 5.31943,-1.070297 7.867707,-1.54743 2.950375,-0.09218 6.496923,-0.437915 8.12064,2.711841 1.608001,2.815549 5.581137,4.414476 8.143899,1.928681 2.082963,-2.935827 5.498764,-5.846548 9.357186,-4.510524 4.270876,0.492234 5.515702,7.16147 10.255347,5.574334 3.66313,-1.634454 5.68626,-7.180164 10.49644,-5.718814 4.75136,-0.314463 5.93891,7.389981 10.88044,5.446362 3.36736,-1.125928 4.73882,-6.097886 8.93045,-5.481974 3.31637,-0.03238 5.27403,2.728021 6.68084,5.379351 3.96565,2.182906 6.10822,-2.756381 8.5112,-4.789812 2.06424,-0.372251 5.04315,-1.186383 6.80415,0.01921 2.27742,2.780921 0.43624,6.957385 0.95609,10.265966 -0.15311,11.057146 -0.21887,22.115212 -0.31045,33.172972 7.39307,-0.44612 15.17892,0.73564 21.08822,5.514 11.41306,8.25382 14.79908,25.27722 7.36188,37.23524 -5.23793,8.92826 -15.50213,14.59425 -25.86848,13.62358 -4.07426,-1.27813 -1.60742,4.46208 -2.32997,6.80361 -0.3217,13.0494 0.12387,26.16792 -0.39285,39.1833 -0.25709,3.07696 -3.90527,1.72954 -5.98626,2.07636 l -0.40956,-0.14607 z m -78.238834,-4.35441 c 2.850145,-3.17957 7.019161,-6.66272 11.615562,-5.15772 3.767134,0.51895 5.822486,7.09227 9.862479,4.74914 2.821196,-2.48881 5.880607,-5.92323 10.094684,-5.03342 4.001169,-0.2179 6.232689,3.31067 9.039959,5.45167 4.66854,0.2592 7.0276,-6.19918 11.89703,-5.50844 3.72828,-0.51204 5.85793,2.90232 8.15539,5.06594 3.54797,1.6775 4.75581,-3.30852 7.63121,-4.34471 4.24141,-2.31074 8.82892,0.98193 11.18942,4.53725 3.03707,-0.0836 0.49177,-9.25596 1.4148,-12.56296 0.15972,-10.56714 -0.0218,-21.17784 0.38034,-31.71778 -10.04439,-3.14546 -18.29591,-11.93723 -19.42302,-22.61499 -0.97715,-8.00753 0.76256,-16.52485 6.39409,-22.6186 3.21143,-4.11797 7.79654,-6.98686 12.6527,-8.70112 -0.0745,-13.61267 0.28286,-27.360576 -0.0608,-40.888973 -2.71976,0.0055 -4.18787,5.660759 -7.95975,5.4837 -3.49881,0.682414 -6.85772,-1.099136 -8.38252,-4.277743 -1.69384,-2.772929 -4.69597,-0.506749 -6.03511,1.381329 -3.83814,5.055738 -12.00848,3.134465 -14.8321,-2.08674 -2.83709,-2.043797 -4.79727,1.42031 -6.6817,3.096808 -3.85578,3.225799 -10.505875,2.94155 -13.386429,-1.572477 -1.646225,-3.306655 -5.947104,-2.395863 -7.319051,0.492172 -4.008388,5.152838 -12.175982,3.419713 -15.176469,-1.826268 -2.185517,-1.909163 -5.563919,-0.468083 -8.258912,-0.921367 -0.511313,11.272536 -0.291321,22.586099 -0.440198,33.876979 13.360294,2.18511 23.976978,14.68124 23.796819,28.22313 0.880035,13.74952 -10.091334,26.71362 -23.579748,28.84699 0.04823,16.20847 -0.289139,32.41946 -0.1535,48.6248 2.486143,-0.087 5.188694,0.51704 7.56483,0.004 z m 36.458614,-12.33178 c -3.76555,-1.19318 -2.12854,-6.4858 -7.462967,-5.86114 -3.643558,-1.74318 -7.981779,-5.49275 -6.347998,-9.96797 3.138569,-2.9041 8.154008,-5.15542 10.659655,-0.31803 0.80607,-3.70619 -0.29517,-5.8931 -4.131307,-6.90241 -6.181364,-3.3564 -8.20301,-12.48123 -3.216579,-17.74326 3.372501,-3.48128 8.099816,-3.73767 9.160566,-8.5893 2.72338,-1.25487 7.73134,-1.05964 7.91821,2.82765 0.55152,3.63084 7.16592,3.24556 8.3529,7.47045 1.53834,1.29759 2.14902,5.56282 0.44444,5.27044 -0.86261,1.38165 -2.98303,2.04542 -3.97531,2.49061 -3.28129,0.4716 -6.70299,0.50241 -1.83444,2.64675 6.17825,2.57502 10.53705,9.79302 7.67272,16.29577 -0.53943,1.02066 -2.2705,4.47122 -4.57602,5.33222 -0.0933,1.41057 -6.61069,1.50325 -5.83239,4.84999 -0.92437,2.81664 -4.51703,2.41736 -6.83148,2.19823 z m 6.13999,-1.3937 c 0.73846,-1.31149 -2.22779,2.65331 0,0 z m 1.02914,-30.69497 c -0.95038,-1.08373 0.67659,1.21239 0,0 z m 8.82995,-4.65277 c -0.31386,-0.91655 0.0622,1.18483 0,0 z M 89.152562,149.05252 c -2.515542,-1.43507 -0.181845,-5.39629 2.468993,-4.25053 10.718785,0.0598 21.437565,0.11963 32.156355,0.17945 2.206,0.77232 1.15321,4.18287 0.3494,4.004 -5.75206,0.56288 -13.18064,0.1171 -19.58493,0.27991 -5.105429,-0.15719 -10.378184,0.34958 -15.389818,-0.21283 z m -0.630195,-16.04274 c -2.863275,-0.38556 -1.970892,-5.44302 1.064618,-4.33063 12.870655,0.0799 25.789315,-0.2264 38.630025,0.0944 2.89684,0.67816 1.47719,5.40843 -1.4469,4.25057 -12.7492,8.9e-4 -25.49882,0.0669 -38.247743,-0.0144 z M 77.18575,116.61104 c -3.430818,1.00799 -3.736746,-5.39221 -0.06248,-4.22758 20.284184,-0.0851 40.56858,0.0114 60.85284,0.0315 2.85988,1.16479 0.82591,5.2391 -1.77442,4.33098 -19.67196,-0.0388 -39.344339,-0.0108 -59.01594,-0.13487 z M 70.249711,99.977819 c -2.149814,-2.257342 1.209222,-4.829826 3.560337,-3.868285 21.327222,-0.005 42.654442,-0.01007 63.981672,-0.0151 2.92493,0.459865 2.15244,5.382756 -0.87761,4.337426 -22.03922,0.0309 -44.078447,0.0618 -66.117671,0.0927 l -0.307474,-0.30747 z"
       id="path5" />
    <path
       style="fill:#8941d7;stroke-width:0.184359;stroke-dasharray:none"
       d="m 146.08936,222.69297 c -2.91839,-1.27431 -4.22808,-6.57177 -8.07108,-5.22583 -2.39792,2.64586 -4.80625,6.21751 -9.00071,5.25316 -4.23793,0.17444 -5.23781,-6.07603 -9.41731,-5.38325 -3.73486,0.80569 -5.3866,5.48858 -9.57892,5.35006 -5.31768,1.29662 -7.02259,-6.03465 -12.175131,-5.81591 -3.779626,1.89632 -6.396149,6.92207 -11.251527,5.81209 -4.414876,0.0912 -6.058235,-6.54019 -10.686252,-5.30078 -3.4601,0.81381 -4.387563,6.16971 -8.383222,5.21351 -3.457268,-0.18426 -7.245119,0.47893 -10.504866,-0.21168 -2.055008,-2.42969 -0.549332,-6.00305 -0.998578,-8.93891 0.02807,-14.32961 0.05614,-28.65923 0.08421,-42.98885 -13.414461,0.11096 -26.22078,-9.79931 -28.742029,-23.14985 -2.388638,-12.73602 4.100783,-27.29514 16.405197,-32.42351 3.722098,-3.34153 13.989901,0.50228 12.088082,-6.77099 0.198588,-10.665402 -0.115433,-21.45393 0.403227,-32.042463 1.383762,-2.813872 5.31943,-1.070297 7.867707,-1.54743 2.950375,-0.09218 6.496923,-0.437915 8.12064,2.711841 1.608001,2.815549 5.581137,4.414476 8.143899,1.928681 2.082963,-2.935827 5.498764,-5.846548 9.357186,-4.510524 4.270876,0.492234 5.515702,7.16147 10.255347,5.574334 3.66313,-1.634454 5.68626,-7.180164 10.49644,-5.718814 4.75136,-0.314463 5.93891,7.389981 10.88044,5.446362 3.36736,-1.125928 4.73882,-6.097886 8.93045,-5.481974 3.31637,-0.03238 5.27403,2.728021 6.68084,5.379351 3.96565,2.182906 6.10822,-2.756381 8.5112,-4.789812 2.06424,-0.372251 5.04315,-1.186383 6.80415,0.01921 2.27742,2.780921 0.43624,6.957385 0.95609,10.265966 -0.15311,11.057146 -0.21887,22.115212 -0.31045,33.172972 7.39307,-0.44612 15.17892,0.73564 21.08822,5.514 11.41306,8.25382 14.79908,25.27722 7.36188,37.23524 -5.23793,8.92826 -15.50213,14.59425 -25.86848,13.62358 -4.07426,-1.27813 -1.60742,4.46208 -2.32997,6.80361 -0.3217,13.0494 0.12387,26.16792 -0.39285,39.1833 -0.25709,3.07696 -3.90527,1.72954 -5.98626,2.07636 l -0.40956,-0.14607 z m -78.238834,-4.35441 c 2.850145,-3.17957 7.019161,-6.66272 11.615562,-5.15772 3.767134,0.51895 5.822486,7.09227 9.862479,4.74914 2.821196,-2.48881 5.880607,-5.92323 10.094684,-5.03342 4.001169,-0.2179 6.232689,3.31067 9.039959,5.45167 4.66854,0.2592 7.0276,-6.19918 11.89703,-5.50844 3.72828,-0.51204 5.85793,2.90232 8.15539,5.06594 3.54797,1.6775 4.75581,-3.30852 7.63121,-4.34471 4.24141,-2.31074 8.82892,0.98193 11.18942,4.53725 3.03707,-0.0836 0.49177,-9.25596 1.4148,-12.56296 0.15972,-10.56714 -0.0218,-21.17784 0.38034,-31.71778 -10.04439,-3.14546 -18.29591,-11.93723 -19.42302,-22.61499 -0.97715,-8.00753 0.76256,-16.52485 6.39409,-22.6186 3.21143,-4.11797 7.79654,-6.98686 12.6527,-8.70112 -0.0745,-13.61267 0.28286,-27.360576 -0.0608,-40.888973 -2.71976,0.0055 -4.18787,5.660759 -7.95975,5.4837 -3.49881,0.682414 -6.85772,-1.099136 -8.38252,-4.277743 -1.69384,-2.772929 -4.69597,-0.506749 -6.03511,1.381329 -3.83814,5.055738 -12.00848,3.134465 -14.8321,-2.08674 -2.83709,-2.043797 -4.79727,1.42031 -6.6817,3.096808 -3.85578,3.225799 -10.505875,2.94155 -13.386429,-1.572477 -1.646225,-3.306655 -5.947104,-2.395863 -7.319051,0.492172 -4.008388,5.152838 -12.175982,3.419713 -15.176469,-1.826268 -2.185517,-1.909163 -5.563919,-0.468083 -8.258912,-0.921367 -0.511313,11.272536 -0.291321,22.586099 -0.440198,33.876979 13.360294,2.18511 23.976978,14.68124 23.796819,28.22313 0.880035,13.74952 -10.091334,26.71362 -23.579748,28.84699 0.04823,16.20847 -0.289139,32.41946 -0.1535,48.6248 2.486143,-0.087 5.188694,0.51704 7.56483,0.004 z m 36.458614,-12.33178 c -3.76555,-1.19318 -2.12854,-6.4858 -7.462967,-5.86114 -3.643558,-1.74318 -7.981779,-5.49275 -6.347998,-9.96797 3.138569,-2.9041 8.154008,-5.15542 10.659655,-0.31803 0.80607,-3.70619 -0.29517,-5.8931 -4.131307,-6.90241 -6.181364,-3.3564 -8.20301,-12.48123 -3.216579,-17.74326 3.372501,-3.48128 8.099816,-3.73767 9.160566,-8.5893 2.72338,-1.25487 7.73134,-1.05964 7.91821,2.82765 0.55152,3.63084 7.16592,3.24556 8.3529,7.47045 1.53834,1.29759 2.14902,5.56282 0.44444,5.27044 -0.86261,1.38165 -2.98303,2.04542 -3.97531,2.49061 -3.28129,0.4716 -6.70299,0.50241 -1.83444,2.64675 6.17825,2.57502 10.53705,9.79302 7.67272,16.29577 -0.53943,1.02066 -2.2705,4.47122 -4.57602,5.33222 -0.0933,1.41057 -6.61069,1.50325 -5.83239,4.84999 -0.92437,2.81664 -4.51703,2.41736 -6.83148,2.19823 z m 6.13999,-1.3937 c 0.73846,-1.31149 -2.22779,2.65331 0,0 z m 1.02914,-30.69497 c -0.95038,-1.08373 0.67659,1.21239 0,0 z m 8.82995,-4.65277 c -0.31386,-0.91655 0.0622,1.18483 0,0 z M 89.152562,149.05252 c -2.515542,-1.43507 -0.181845,-5.39629 2.468993,-4.25053 10.718785,0.0598 21.437565,0.11963 32.156355,0.17945 2.206,0.77232 1.15321,4.18287 0.3494,4.004 -5.75206,0.56288 -13.18064,0.1171 -19.58493,0.27991 -5.105429,-0.15719 -10.378184,0.34958 -15.389818,-0.21283 z m -0.630195,-16.04274 c -2.863275,-0.38556 -1.970892,-5.44302 1.064618,-4.33063 12.870655,0.0799 25.789315,-0.2264 38.630025,0.0944 2.89684,0.67816 1.47719,5.40843 -1.4469,4.25057 -12.7492,8.9e-4 -25.49882,0.0669 -38.247743,-0.0144 z M 77.18575,116.61104 c -3.430818,1.00799 -3.736746,-5.39221 -0.06248,-4.22758 20.284184,-0.0851 40.56858,0.0114 60.85284,0.0315 2.85988,1.16479 0.82591,5.2391 -1.77442,4.33098 -19.67196,-0.0388 -39.344339,-0.0108 -59.01594,-0.13487 z M 70.249711,99.977819 c -2.149814,-2.257342 1.209222,-4.829826 3.560337,-3.868285 21.327222,-0.005 42.654442,-0.01007 63.981672,-0.0151 2.92493,0.459865 2.15244,5.382756 -0.87761,4.337426 -22.03922,0.0309 -44.078447,0.0618 -66.117671,0.0927 l -0.307474,-0.30747 z m 93.980459,69.985711 c 11.30117,-3.58372 19.06506,-16.36871 16.55967,-28.07158 -2.44044,-14.66067 -21.12778,-24.19525 -34.09819,-16.37422 -8.39442,4.23501 -13.73238,13.54952 -12.88958,23.00998 0.16685,8.14768 5.04999,15.74371 12.33544,19.3827 4.91589,3.3469 11.05385,3.13883 16.64278,2.48674 0.48329,-0.14454 0.96659,-0.28908 1.44988,-0.43362 z m -10.11975,-7.93278 c -4.28522,-1.1941 -10.38394,-3.87601 -10.66065,-8.6783 -0.39756,-2.16625 1.92387,-3.08362 3.80526,-1.50695 1.83631,6.33965 10.50082,8.17699 15.18595,3.86079 2.48733,-1.1505 3.05842,-7.34849 6.3441,-4.25811 1.0679,4.05409 -3.21925,7.6235 -6.46204,9.31439 -2.50953,1.11179 -5.48857,1.80733 -8.21262,1.26818 z m 7.94152,-18.13114 c -3.14734,-1.72434 -1.53892,-8.83021 2.53189,-6.97699 4.05017,1.70552 1.60923,8.99784 -2.53189,6.97699 z m -15.77819,-0.13733 c -3.7323,-1.24393 -2.25728,-8.23288 1.85933,-7.28418 2.87148,1.68151 2.35925,6.71967 -0.78541,7.53693 l -1.07392,-0.25274 z"
       id="path4" />
    <path
       style="fill:#1ad1b2;stroke-width:0.184392"
       d="m 146.91457,222.766 c -3.52143,-0.70994 -6.67674,-9.17654 -10.43067,-3.74551 -2.38439,4.64865 -9.54588,5.03383 -12.3444,0.68726 -1.623,-3.06304 -5.87933,-3.19885 -7.90068,-0.47741 -3.18485,4.10984 -10.176,4.99852 -13.12184,0.25957 -1.68006,-2.21712 -5.367958,-3.81264 -7.481224,-1.29738 -2.575552,3.23811 -7.156251,6.00879 -11.220334,3.82917 -2.993882,-1.27339 -4.606149,-5.82572 -8.492957,-4.66704 -3.436449,0.75128 -4.282693,6.22438 -8.345505,5.22686 -3.469859,-0.20962 -7.222952,0.55148 -10.523886,-0.2371 -2.035111,-1.97283 -0.546103,-5.44229 -0.996756,-8.02933 0.01656,-14.63626 0.0331,-29.27252 0.04966,-43.90877 -14.947911,0.32992 -28.823155,-12.41303 -29.228667,-27.3913 -0.449007,-12.27829 6.961789,-25.20035 19.041992,-28.93001 2.67213,-2.37449 10.245498,0.72045 9.976704,-3.8563 0.115421,-11.423543 -0.09349,-22.860003 0.336061,-34.273634 1.575016,-2.534894 5.005225,-0.913821 7.491933,-1.406362 3.488213,-0.355958 7.392673,-0.120372 9.16537,3.572768 2.046965,3.306178 6.992282,2.843999 8.851709,-0.37191 2.568565,-4.385546 9.383635,-4.322248 12.238161,-0.324607 1.54891,2.484174 4.83928,4.23537 7.440059,2.150534 2.60475,-2.382236 5.21796,-6.332894 9.35321,-5.003015 4.47934,-0.146034 5.69469,7.015532 10.3657,5.512242 3.62124,-1.053021 5.07144,-6.618689 9.527,-5.469435 3.4957,-0.277151 4.63191,3.539214 6.71414,5.363435 3.96987,1.968249 5.71659,-3.588872 8.60331,-5.075208 2.12657,0.07758 5.37522,-1.434324 6.79358,0.741983 1.03534,4.256939 0.0591,8.96899 0.40427,13.376733 -0.0469,9.845249 -0.14824,19.690106 -0.23534,29.535046 7.63995,-0.49169 15.73939,0.88131 21.68799,6.0175 7.32268,5.65341 11.41422,14.96226 10.53652,24.15302 -0.25335,9.23249 -6.10602,17.90301 -13.863,22.64649 -5.4931,2.90701 -11.88982,4.26901 -18.0588,3.33653 -0.24621,15.42432 -0.0414,30.85562 -0.4235,46.27715 -0.57001,2.94862 -3.69313,1.61036 -5.90981,1.77803 z m -77.0298,-6.24945 c 3.181186,-4.2085 10.122022,-5.05185 13.577686,-0.75444 1.477059,2.20668 4.74314,4.04868 6.847804,1.4954 2.50668,-2.86784 6.094982,-5.32359 10.07971,-4.21152 4.15028,-0.19244 5.52155,4.9467 9.13296,5.40053 4.06785,-1.44719 7.00038,-6.60394 11.93504,-5.53014 4.40835,-0.53931 5.70808,7.24884 9.99731,4.94697 2.35283,-2.74901 5.43893,-6.02853 9.44754,-4.81552 3.4615,0.18122 4.82424,4.83795 7.58403,5.48417 0.60187,-14.89146 0.12455,-29.82496 0.64206,-44.71447 -9.64368,-3.10557 -17.64869,-11.23287 -19.21191,-21.43042 -0.48009,-5.81669 -0.73687,-12.01979 1.98437,-17.4009 3.48196,-6.95571 9.48551,-12.57247 16.86168,-15.17594 -0.01,-13.61986 0.12089,-27.239217 0.22732,-40.858523 -2.97259,-5.53e-4 -4.20418,4.801668 -7.51082,5.435571 -4.12364,0.747316 -7.73673,-1.167172 -9.71139,-4.902012 -3.57349,-2.543509 -5.38284,3.799794 -8.70592,4.396883 -4.3914,2.172448 -9.36419,-0.926606 -11.86963,-4.565023 -2.88424,-2.002392 -4.6381,1.886743 -6.59149,3.461714 -4.0656,2.98469 -10.343099,2.561854 -13.211143,-1.839581 -1.306621,-2.545857 -5.104953,-2.981638 -6.545307,-0.359615 -2.920983,4.71544 -10.345401,5.461578 -13.965699,1.244843 -1.665896,-3.879436 -5.337571,-3.039024 -8.686767,-3.06117 -3.135515,-0.546878 -1.320456,3.939784 -1.823384,5.797211 -0.05752,9.374319 -0.08502,18.748972 -0.206213,28.122752 12.154583,1.974 21.892942,12.26108 23.605669,24.35863 1.647061,10.64261 -2.91299,22.05839 -12.074033,27.96788 -3.521622,4.4821 -13.618927,1.72149 -11.329875,9.38829 -0.142087,14.58998 -0.12996,29.18083 -0.177753,43.77129 2.675651,0.40316 7.048998,1.54896 9.081682,-1.02946 0.205492,-0.20781 0.410982,-0.41561 0.616473,-0.6234 z m 35.45392,-10.42325 c -3.76762,0.80103 -2.98823,-4.03905 -5.02469,-4.79971 -4.743992,-1.2142 -11.173724,-5.03331 -9.968879,-10.69638 2.095877,-1.97531 4.926023,-3.82521 7.885768,-3.68784 2.807281,3.88012 3.695311,2.34252 3.123631,-1.66705 -3.712076,-2.04814 -8.435364,-4.13113 -9.692018,-8.86317 -2.600098,-6.74577 2.765414,-14.47484 9.664148,-15.60079 -0.4295,-2.92679 2.05928,-5.24831 4.94815,-4.74316 2.89847,-0.65821 5.28223,2.26849 4.6012,5.01002 4.38505,1.37698 10.19418,5.36039 9.10653,10.50317 -2.00904,2.37214 -6.83288,5.79883 -8.85235,1.73304 -1.08615,4.03697 3.77078,3.97637 6.06633,6.04522 4.9543,3.49376 6.78314,10.81429 3.10604,15.85412 -1.96107,3.51038 -5.77028,5.18483 -9.38317,6.46798 0.21962,3.42857 -2.45799,4.96661 -5.58069,4.44455 z M 89.088025,149.00314 c -2.326349,-1.47249 -0.14453,-5.22849 2.428602,-4.11082 10.742723,0.0317 21.485453,0.0634 32.228173,0.0952 3.94177,2.67285 -1.5715,5.93744 -4.41242,4.2412 -9.90675,0.0268 -19.81352,0.0437 -29.720281,0.0646 l -0.380395,-0.21065 z m 17.663715,-16.02848 c -6.29004,-0.0307 -12.580069,-0.0615 -18.870101,-0.0922 -2.468948,-1.84411 -0.208434,-5.39694 2.593636,-4.21711 12.637475,0.0291 25.274955,0.0582 37.912435,0.0874 3.76677,2.18719 -0.97766,5.51415 -3.70997,4.33636 -5.97522,-0.0534 -11.95064,-0.0838 -17.926,-0.11437 z M 77.292227,116.57734 c -3.953082,0.80523 -3.287462,-5.76257 0.506539,-4.27413 19.997648,0.0372 39.995304,0.0745 59.992954,0.11172 3.26967,1.15388 0.59949,5.58792 -2.30214,4.24221 -19.39899,-0.0148 -38.799113,0.0881 -58.197353,-0.0798 z m -6.743548,-16.37141 c -2.80469,-2.806605 1.275712,-4.786269 3.777404,-3.905898 21.290122,-0.02402 42.580237,-0.04805 63.870367,-0.07208 2.79087,1.045848 1.08944,5.224498 -1.67206,4.293488 -21.82755,-0.003 -43.655097,-0.006 -65.482644,-0.01 l -0.3695,-0.22923 z m 93.681491,69.7576 c 11.30117,-3.58372 19.06506,-16.36871 16.55967,-28.07158 -2.44044,-14.66067 -21.12778,-24.19525 -34.09819,-16.37422 -8.39442,4.23501 -13.73238,13.54952 -12.88958,23.00998 0.16685,8.14768 5.04999,15.74371 12.33544,19.3827 4.91589,3.3469 11.05385,3.13883 16.64278,2.48674 0.48329,-0.14454 0.96659,-0.28908 1.44988,-0.43362 z m -10.11975,-7.93278 c -4.28522,-1.1941 -10.38394,-3.87601 -10.66065,-8.6783 -0.39756,-2.16625 1.92387,-3.08362 3.80526,-1.50695 1.83631,6.33965 10.50082,8.17699 15.18595,3.86079 2.48733,-1.1505 3.05842,-7.34849 6.3441,-4.25811 1.0679,4.05409 -3.21925,7.6235 -6.46204,9.31439 -2.50953,1.11179 -5.48857,1.80733 -8.21262,1.26818 z m 7.94152,-18.13114 c -3.14734,-1.72434 -1.53892,-8.83021 2.53189,-6.97699 4.05017,1.70552 1.60923,8.99784 -2.53189,6.97699 z m -15.77819,-0.13733 c -3.7323,-1.24393 -2.25728,-8.23288 1.85933,-7.28418 2.87148,1.68151 2.35925,6.71967 -0.78541,7.53693 l -1.07392,-0.25274 z m -86.572123,21.38571 c 13.556459,-1.48935 22.543634,-16.62132 19.560674,-29.48927 -0.758966,-4.83607 -3.106592,-8.21735 -6.097203,-12.06256 -8.698237,-8.75371 -23.70214,-9.39567 -33.151323,-1.52204 -10.011103,7.97521 -11.841253,23.90195 -4.033292,34.03783 5.127031,7.55363 14.920997,10.61223 23.721144,9.03604 z m -5.43957,-9.05444 c -5.226338,-0.68395 -9.849741,-5.02249 -10.873741,-10.11382 -0.544191,-3.45313 4.910554,-2.64457 4.632223,0.65073 2.438784,5.27649 9.960041,7.26447 14.547704,3.50275 2.750716,-1.00062 2.719526,-5.60698 5.838608,-5.35123 2.798131,0.35283 1.344186,4.0468 0.06087,5.50967 -3.52619,3.88306 -8.766532,7.16456 -14.205669,5.8019 z m 9.815588,-17.68597 c -1.876744,-0.18336 -2.027809,-5.28619 -1.244188,-5.11024 1.048399,-4.22865 6.607186,-1.74812 5.716284,1.85398 -0.03912,1.88448 -2.546265,4.90738 -4.472096,3.25626 z m -16.82249,-0.27322 c -3.358315,-1.62392 -1.554835,-8.24031 2.074764,-7.72499 3.92211,1.31242 2.455501,9.30168 -2.074764,7.72499 z"
       id="path3" />
    <path
       style="fill:#0e2a63;stroke-width:0.184392"
       d="m 146.91457,222.766 c -3.52143,-0.70994 -6.67674,-9.17654 -10.43067,-3.74551 -2.38439,4.64865 -9.54588,5.03383 -12.3444,0.68726 -1.623,-3.06304 -5.87933,-3.19885 -7.90068,-0.47741 -3.18485,4.10984 -10.176,4.99852 -13.12184,0.25957 -1.68006,-2.21712 -5.367958,-3.81264 -7.481224,-1.29738 -2.575552,3.23811 -7.156251,6.00879 -11.220334,3.82917 -2.993882,-1.27339 -4.606149,-5.82572 -8.492957,-4.66704 -3.436449,0.75128 -4.282693,6.22438 -8.345505,5.22686 -3.469859,-0.20962 -7.222952,0.55148 -10.523886,-0.2371 -2.035111,-1.97283 -0.546103,-5.44229 -0.996756,-8.02933 0.01656,-14.63626 0.0331,-29.27252 0.04966,-43.90877 -14.947911,0.32992 -28.823155,-12.41303 -29.228667,-27.3913 -0.449007,-12.27829 6.961789,-25.20035 19.041992,-28.93001 2.67213,-2.37449 10.245498,0.72045 9.976704,-3.8563 0.115421,-11.423543 -0.09349,-22.860003 0.336061,-34.273634 1.575016,-2.534894 5.005225,-0.913821 7.491933,-1.406362 3.488213,-0.355958 7.392673,-0.120372 9.16537,3.572768 2.046965,3.306178 6.992282,2.843999 8.851709,-0.37191 2.568565,-4.385546 9.383635,-4.322248 12.238161,-0.324607 1.54891,2.484174 4.83928,4.23537 7.440059,2.150534 2.60475,-2.382236 5.21796,-6.332894 9.35321,-5.003015 4.47934,-0.146034 5.69469,7.015532 10.3657,5.512242 3.62124,-1.053021 5.07144,-6.618689 9.527,-5.469435 3.4957,-0.277151 4.63191,3.539214 6.71414,5.363435 3.96987,1.968249 5.71659,-3.588872 8.60331,-5.075208 2.12657,0.07758 5.37522,-1.434324 6.79358,0.741983 1.03534,4.256939 0.0591,8.96899 0.40427,13.376733 -0.0469,9.845249 -0.14824,19.690106 -0.23534,29.535046 7.63995,-0.49169 15.73939,0.88131 21.68799,6.0175 7.32268,5.65341 11.41422,14.96226 10.53652,24.15302 -0.25335,9.23249 -6.10602,17.90301 -13.863,22.64649 -5.4931,2.90701 -11.88982,4.26901 -18.0588,3.33653 -0.24621,15.42432 -0.0414,30.85562 -0.4235,46.27715 -0.57001,2.94862 -3.69313,1.61036 -5.90981,1.77803 z m -77.0298,-6.24945 c 3.181186,-4.2085 10.122022,-5.05185 13.577686,-0.75444 1.477059,2.20668 4.74314,4.04868 6.847804,1.4954 2.50668,-2.86784 6.094982,-5.32359 10.07971,-4.21152 4.15028,-0.19244 5.52155,4.9467 9.13296,5.40053 4.06785,-1.44719 7.00038,-6.60394 11.93504,-5.53014 4.40835,-0.53931 5.70808,7.24884 9.99731,4.94697 2.35283,-2.74901 5.43893,-6.02853 9.44754,-4.81552 3.4615,0.18122 4.82424,4.83795 7.58403,5.48417 0.60187,-14.89146 0.12455,-29.82496 0.64206,-44.71447 -9.64368,-3.10557 -17.64869,-11.23287 -19.21191,-21.43042 -0.48009,-5.81669 -0.73687,-12.01979 1.98437,-17.4009 3.48196,-6.95571 9.48551,-12.57247 16.86168,-15.17594 -0.01,-13.61986 0.12089,-27.239217 0.22732,-40.858523 -2.97259,-5.53e-4 -4.20418,4.801668 -7.51082,5.435571 -4.12364,0.747316 -7.73673,-1.167172 -9.71139,-4.902012 -3.57349,-2.543509 -5.38284,3.799794 -8.70592,4.396883 -4.3914,2.172448 -9.36419,-0.926606 -11.86963,-4.565023 -2.88424,-2.002392 -4.6381,1.886743 -6.59149,3.461714 -4.0656,2.98469 -10.343099,2.561854 -13.211143,-1.839581 -1.306621,-2.545857 -5.104953,-2.981638 -6.545307,-0.359615 -2.920983,4.71544 -10.345401,5.461578 -13.965699,1.244843 -1.665896,-3.879436 -5.337571,-3.039024 -8.686767,-3.06117 -3.135515,-0.546878 -1.320456,3.939784 -1.823384,5.797211 -0.05752,9.374319 -0.08502,18.748972 -0.206213,28.122752 12.154583,1.974 21.892942,12.26108 23.605669,24.35863 1.647061,10.64261 -2.91299,22.05839 -12.074033,27.96788 -3.521622,4.4821 -13.618927,1.72149 -11.329875,9.38829 -0.142087,14.58998 -0.12996,29.18083 -0.177753,43.77129 2.675651,0.40316 7.048998,1.54896 9.081682,-1.02946 0.205492,-0.20781 0.410982,-0.41561 0.616473,-0.6234 z m 35.45392,-10.42325 c -3.76762,0.80103 -2.98823,-4.03905 -5.02469,-4.79971 -4.743992,-1.2142 -11.173724,-5.03331 -9.968879,-10.69638 2.095877,-1.97531 4.926023,-3.82521 7.885768,-3.68784 2.807281,3.88012 3.695311,2.34252 3.123631,-1.66705 -3.712076,-2.04814 -8.435364,-4.13113 -9.692018,-8.86317 -2.600098,-6.74577 2.765414,-14.47484 9.664148,-15.60079 -0.4295,-2.92679 2.05928,-5.24831 4.94815,-4.74316 2.89847,-0.65821 5.28223,2.26849 4.6012,5.01002 4.38505,1.37698 10.19418,5.36039 9.10653,10.50317 -2.00904,2.37214 -6.83288,5.79883 -8.85235,1.73304 -1.08615,4.03697 3.77078,3.97637 6.06633,6.04522 4.9543,3.49376 6.78314,10.81429 3.10604,15.85412 -1.96107,3.51038 -5.77028,5.18483 -9.38317,6.46798 0.21962,3.42857 -2.45799,4.96661 -5.58069,4.44455 z m 2.51116,-2.98377 c 0.0652,-3.01501 0.62928,-5.59764 4.49574,-5.40662 4.6341,-1.49515 8.57435,-6.5296 6.57486,-11.46873 -1.09909,-5.43546 -8.60789,-5.48472 -10.72368,-8.99826 0,-2.76826 0,-5.53653 0,-8.30479 2.73121,-0.78701 4.37948,2.3804 6.01775,3.12076 2.8062,-0.54736 4.17508,-2.59278 1.59326,-4.68809 -1.81005,-2.615 -6.39671,-2.26103 -7.63331,-4.5546 1.20306,-2.88911 -1.96105,-5.59983 -4.0977,-3.23546 1.7266,5.41927 -5.055104,4.10904 -7.890236,7.24585 -3.508883,3.29557 -3.083996,9.48663 0.813124,12.27659 1.80094,2.5932 6.820052,1.82025 7.347782,5.04731 -0.18389,3.13615 0.20346,6.51323 -0.32543,9.50388 -2.52942,0.0438 -5.493232,-1.43494 -7.202266,-3.53534 -4.573355,0.89583 -4.490425,4.31914 -0.537049,6.20186 2.139581,2.52458 8.475755,0.49696 7.857445,4.53966 -0.84852,2.80585 1.9948,3.04818 3.70971,2.25598 z m 0.51921,-10.91048 c -1.38158,-5.20519 0.0744,-11.41618 4.59597,-5.42541 2.19636,2.55284 -3.69688,9.19576 -4.59597,5.42541 z m -5.98064,-15.02653 c -4.378448,-0.92683 -4.117786,-7.32906 -0.11578,-8.32844 3.59157,-1.39747 1.14632,4.26809 1.8002,6.27159 -0.0469,1.38229 0.48947,3.02535 -1.68442,2.05685 z M 89.088025,149.00314 c -2.326349,-1.47249 -0.14453,-5.22849 2.428602,-4.11082 10.742723,0.0317 21.485453,0.0634 32.228173,0.0952 3.94177,2.67285 -1.5715,5.93744 -4.41242,4.2412 -9.90675,0.0268 -19.81352,0.0437 -29.720281,0.0646 l -0.380395,-0.21065 z m 17.663715,-16.02848 c -6.29004,-0.0307 -12.580069,-0.0615 -18.870101,-0.0922 -2.468948,-1.84411 -0.208434,-5.39694 2.593636,-4.21711 12.637475,0.0291 25.274955,0.0582 37.912435,0.0874 3.76677,2.18719 -0.97766,5.51415 -3.70997,4.33636 -5.97522,-0.0534 -11.95064,-0.0838 -17.926,-0.11437 z M 77.292227,116.57734 c -3.953082,0.80523 -3.287462,-5.76257 0.506539,-4.27413 19.997648,0.0372 39.995304,0.0745 59.992954,0.11172 3.26967,1.15388 0.59949,5.58792 -2.30214,4.24221 -19.39899,-0.0148 -38.799113,0.0881 -58.197353,-0.0798 z m -6.743548,-16.37141 c -2.80469,-2.806605 1.275712,-4.786269 3.777404,-3.905898 21.290122,-0.02402 42.580237,-0.04805 63.870367,-0.07208 2.79087,1.045848 1.08944,5.224498 -1.67206,4.293488 -21.82755,-0.003 -43.655097,-0.006 -65.482644,-0.01 l -0.3695,-0.22923 z m 93.681491,69.7576 c 11.30117,-3.58372 19.06506,-16.36871 16.55967,-28.07158 -2.44044,-14.66067 -21.12778,-24.19525 -34.09819,-16.37422 -8.39442,4.23501 -13.73238,13.54952 -12.88958,23.00998 0.16685,8.14768 5.04999,15.74371 12.33544,19.3827 4.91589,3.3469 11.05385,3.13883 16.64278,2.48674 0.48329,-0.14454 0.96659,-0.28908 1.44988,-0.43362 z m -10.11975,-7.93278 c -4.28522,-1.1941 -10.38394,-3.87601 -10.66065,-8.6783 -0.39756,-2.16625 1.92387,-3.08362 3.80526,-1.50695 1.83631,6.33965 10.50082,8.17699 15.18595,3.86079 2.48733,-1.1505 3.05842,-7.34849 6.3441,-4.25811 1.0679,4.05409 -3.21925,7.6235 -6.46204,9.31439 -2.50953,1.11179 -5.48857,1.80733 -8.21262,1.26818 z m 7.94152,-18.13114 c -3.14734,-1.72434 -1.53892,-8.83021 2.53189,-6.97699 4.05017,1.70552 1.60923,8.99784 -2.53189,6.97699 z m -15.77819,-0.13733 c -3.7323,-1.24393 -2.25728,-8.23288 1.85933,-7.28418 2.87148,1.68151 2.35925,6.71967 -0.78541,7.53693 l -1.07392,-0.25274 z m -86.572123,21.38571 c 13.556459,-1.48935 22.543634,-16.62132 19.560674,-29.48927 -0.758966,-4.83607 -3.106592,-8.21735 -6.097203,-12.06256 -8.698237,-8.75371 -23.70214,-9.39567 -33.151323,-1.52204 -10.011103,7.97521 -11.841253,23.90195 -4.033292,34.03783 5.127031,7.55363 14.920997,10.61223 23.721144,9.03604 z m -5.43957,-9.05444 c -5.226338,-0.68395 -9.849741,-5.02249 -10.873741,-10.11382 -0.544191,-3.45313 4.910554,-2.64457 4.632223,0.65073 2.438784,5.27649 9.960041,7.26447 14.547704,3.50275 2.750716,-1.00062 2.719526,-5.60698 5.838608,-5.35123 2.798131,0.35283 1.344186,4.0468 0.06087,5.50967 -3.52619,3.88306 -8.766532,7.16456 -14.205669,5.8019 z m 9.815588,-17.68597 c -1.876744,-0.18336 -2.027809,-5.28619 -1.244188,-5.11024 1.048399,-4.22865 6.607186,-1.74812 5.716284,1.85398 -0.03912,1.88448 -2.546265,4.90738 -4.472096,3.25626 z m -16.82249,-0.27322 c -3.358315,-1.62392 -1.554835,-8.24031 2.074764,-7.72499 3.92211,1.31242 2.455501,9.30168 -2.074764,7.72499 z"
       id="path2" />
    <path
       style="fill:#f4eed7;stroke-width:0.310876"
       d="m 62.354613,218.23049 c -3.54629,0.66835 -1.326698,-4.09129 -1.925101,-6.19807 0.07484,-14.08702 0.02619,-28.17605 0.32608,-42.26068 13.23574,-2.30003 24.241568,-14.8925 23.336406,-28.56365 0.397021,-13.68224 -10.197141,-26.1392 -23.520418,-28.68689 -0.128053,-11.21479 -0.237275,-22.434653 0.224264,-33.643745 2.365261,0.242614 5.131992,-0.453929 7.272554,0.314321 3.530859,5.284436 11.744469,8.011886 16.224928,2.259495 5.504473,-7.102182 9.502001,6.54038 16.363164,3.15596 4.92494,-0.632109 8.96342,-9.763703 13.13803,-2.35144 6.15525,7.055666 12.35367,-2.389612 17.63133,-2.688294 3.57461,7.393118 13.11537,5.87349 16.77726,-0.534604 0.70699,13.480963 0.33318,27.016287 0.5063,40.521687 -11.80201,4.34009 -20.73657,16.45733 -19.23895,29.29469 0.0243,11.59218 8.72354,21.40638 19.31528,25.10718 -0.12573,14.83302 0.19728,29.69631 -0.67089,44.50131 -4.05797,-7.1784 -13.09647,-7.00789 -17.59173,-0.42317 -4.93704,-3.09057 -11.95255,-8.83257 -17.44392,-1.9472 -5.82192,6.22461 -10.27395,-7.03578 -17.404354,-2.9842 -4.341299,2.84065 -9.137921,8.06287 -13.262771,1.54875 -7.891274,-7.1591 -12.36387,5.97343 -20.057462,3.57855 z m 46.652077,-12.22557 c 3.09647,-5.94283 13.2303,-7.11854 13.31948,-15.51118 2.66463,-7.59221 -8.48177,-12.57999 -10.2598,-15.22075 6.74191,1.32182 12.53312,-6.69037 5.01803,-10.91366 -6.53724,-1.51554 -6.3725,-11.56779 -14.30784,-7.80709 -3.218496,6.40933 -14.707956,9.16682 -11.58862,18.98164 0.148229,6.93614 10.64591,6.8287 9.95296,13.09079 -1.450706,-2.1626 -13.804967,-1.77575 -10.658861,5.7773 1.408057,5.355 8.828125,4.90505 10.908991,8.57267 0.35206,3.82631 4.86271,3.57808 7.61566,3.03028 z m 15.6949,-56.94721 c 2.48949,-5.03189 -3.24788,-4.43499 -6.25378,-4.27454 -9.83772,0.18386 -19.738308,-0.48028 -29.525674,0.4532 -3.256581,3.70321 2.289648,4.97378 5.16034,4.20993 10.200844,-0.13506 20.456104,0.35394 30.619114,-0.38859 z m 4.70646,-16.59607 c 2.31938,-4.39584 -3.22523,-4.08223 -5.92553,-3.84403 -11.83094,0.0805 -23.67325,-0.2159 -35.494962,0.23675 -4.125136,3.01006 1.793845,5.58983 4.849987,4.4264 11.975395,0 23.950785,0 35.926185,0 0.21478,-0.27304 0.42955,-0.54608 0.64432,-0.81912 z m 9.67535,-16.84899 c 0.10247,-6.77949 -11.65693,-1.90068 -16.38773,-3.4397 -15.7489,0.177 -31.546095,-0.52216 -47.264403,0.41389 -3.552134,3.48013 2.123716,5.12689 5.16218,4.20734 19.311409,-0.0484 38.622823,-0.0969 57.934223,-0.14529 0.18525,-0.34541 0.37049,-0.69082 0.55573,-1.03624 z m 0.0478,-15.51791 c 1.4474,-7.569101 -11.93307,-2.517781 -16.66377,-4.080803 -17.16987,-0.04652 -34.339831,-0.02623 -51.509745,-0.03831 -5.12038,7.066863 8.976074,3.914416 12.785327,4.646343 18.102968,-0.0723 36.215918,0.24821 54.312278,-0.22625 l 1.07591,-0.30099 z"
       id="path1" />
    <path
       style="fill:#1ad1b2;fill-opacity:1;stroke-width:0.219822"
       d="m 62.910501,218.17071 c -5.538765,-1.65752 -0.99744,-12.56763 -2.36588,-17.99985 0.15571,-10.10625 -0.03893,-20.23586 0.433689,-30.32645 14.35088,-2.58929 25.260471,-17.12295 23.0499,-31.67817 C 82.985568,125.73791 73.10988,115.14298 61.012583,112.55059 60.27609,101.41587 60.33483,90.177056 60.992814,79.032988 c 2.863578,0.467597 6.712844,-1.301974 8.446297,1.730621 5.489101,7.933554 13.708417,1.590682 19.230288,-1.406869 5.328907,6.957211 14.981281,6.756922 20.351061,-0.02321 4.962,2.774776 12.17036,9.065532 17.59836,2.313494 5.32845,-7.101774 9.19355,7.836687 16.29613,2.316707 2.94135,-2.132414 6.46428,-7.704178 5.40927,-0.592412 0.21255,12.026485 0.2661,24.054971 0.38219,36.082601 -11.48278,4.42666 -20.61872,15.98131 -19.27414,28.69749 -0.34544,11.7421 8.3682,21.97151 19.0991,25.79157 0.08,14.7334 0.20369,29.48009 -0.43896,44.20035 -4.84819,-7.94634 -13.23512,-5.21775 -18.59617,-0.0791 -4.79301,-7.02123 -13.59031,-6.26109 -18.93686,-0.36066 -5.47453,-1.25536 -12.510829,-9.15363 -18.563295,-2.43137 -6.053925,7.98121 -12.09474,-7.72614 -19.370459,-1.20193 -3.105529,2.15061 -5.458655,5.42981 -9.715123,4.10044 z m 46.619899,-12.3713 c 3.38983,-6.24395 14.18138,-7.84598 12.95041,-17.06097 1.03594,-6.76929 -8.10207,-10.73978 -10.51913,-13.40673 7.62247,1.33332 12.3744,-7.3284 4.56521,-11.45556 -5.70224,-1.99755 -7.41254,-12.11768 -14.55827,-6.50339 -0.65399,5.26195 -8.029812,4.59631 -9.647509,9.63945 -3.984778,7.09763 0.863864,15.47017 7.976459,18.07994 2.10438,4.35889 0.514,4.3806 -2.822902,1.63061 -11.077783,0.12642 -7.547484,13.35102 1.356273,14.30442 4.297399,1.36628 3.499379,8.33873 10.699459,4.77223 z m 14.83692,-56.52988 c 3.278,-4.38658 -2.19209,-4.98529 -5.25205,-4.3997 -10.16975,0.14852 -20.39028,-0.40468 -30.518092,0.41206 -2.701682,4.12876 2.664002,4.95121 5.577232,4.33754 10.06425,-0.0972 20.13235,-0.0532 30.19291,-0.3499 z m 5.07826,-16.74106 c 2.35982,-4.44922 -3.00426,-4.36245 -5.82865,-4.03012 -12.02449,0.12598 -24.080333,-0.28049 -36.079602,0.39471 -3.446892,3.89632 2.738836,5.21178 5.733153,4.43609 11.854799,0 23.709599,0 35.564399,0 0.20357,-0.26689 0.40714,-0.53378 0.6107,-0.80068 z m 9.51904,-16.55654 c 2.12534,-4.68448 -3.51846,-3.70789 -6.23386,-3.77292 -19.19306,-0.16081 -38.444355,-0.54074 -57.599477,0.38988 -2.43299,2.2537 0.93625,5.65584 4.0533,4.25357 19.778639,0 39.557277,0 59.335917,0 0.14804,-0.29018 0.29608,-0.58035 0.44412,-0.87053 z m -0.41658,-15.5139 c 3.89086,-4.032787 -2.16868,-5.117721 -5.20038,-4.398414 -20.79143,-0.03832 -41.582846,-0.07664 -62.374269,-0.11496 -5.277972,7.422664 9.270709,3.778444 13.102068,4.722144 18.157021,-10e-4 36.317981,0.0757 54.472581,-0.20877 z"
       id="path6" />
    <path
       style="fill:#ffffff;fill-opacity:1;stroke-width:0.219822"
       d="m 104.49306,202.94649 c 1.54495,-6.32372 -5.701533,-4.10958 -8.903569,-7.27452 -6.122393,-3.76368 3.083835,-7.61788 5.278659,-2.58505 5.46708,3.33575 4.90909,-9.95961 1.47917,-11.17156 -7.794768,-1.30251 -12.122233,-12.55474 -3.916418,-16.49381 4.785788,-0.8391 6.208808,-2.42951 6.682248,-6.45768 4.73212,-0.70863 1.40307,7.17464 7.41367,6.35706 5.22843,0.42442 5.04162,8.63284 0.56576,5.80807 -3.40922,-4.40892 -6.07092,-1.9927 -4.89864,2.3747 0.0601,2.51495 -0.90244,5.7006 2.59071,5.93151 9.47471,1.52416 11.71124,15.68227 1.51433,18.0438 -7.10157,-0.5971 -1.27217,7.65371 -7.80592,5.46748 z m 5.48677,-9.94453 c 8.86563,-1.5362 -2.86245,-15.09526 -1.78356,-5.46883 0.51316,1.41517 -1.39234,7.26783 1.78356,5.46883 z m -5.7931,-20.0498 c 2.18523,-5.9071 -4.507937,-5.30897 -5.198955,0.0158 1.252565,5.37892 6.740065,6.57819 5.198955,-0.0158 z"
       id="path7" />
    <path
       style="fill:#8941d7;fill-opacity:1;stroke-width:0.0688176"
       d=""
       id="path9"
       transform="matrix(0.26458333,0,0,0.26458333,17.535416,65.555396)" />
    <path
       style="fill:#8941d7;fill-opacity:1;stroke:#8941d7;stroke-width:0.488641;stroke-dasharray:none;stroke-opacity:1"
       d="m 51.881081,165.28015 c -2.874148,-0.40165 -5.697339,-1.29716 -8.216352,-2.60621 -3.219938,-1.67329 -5.56541,-3.74083 -7.763054,-6.84317 -2.092224,-2.95353 -3.254319,-5.51347 -4.069836,-8.96529 -0.513236,-2.17236 -0.71174,-6.46405 -0.405312,-8.76287 0.442816,-3.322 1.583623,-6.73619 3.187446,-9.5393 3.260224,-5.69814 9.046241,-9.85796 15.792214,-11.3537 1.964844,-0.43566 6.443197,-0.60657 8.582811,-0.32755 3.808747,0.49669 7.878137,2.01424 10.709724,3.99387 2.675782,1.8707 3.836751,3.11974 6.104172,6.56717 1.833989,2.78845 2.69961,4.87857 3.348924,8.08629 1.40294,6.93077 0.06182,13.60741 -3.952506,19.67729 -1.198298,1.81188 -4.540913,5.20384 -6.254047,6.34637 -3.903759,2.6035 -7.659041,3.68628 -13.227305,3.8139 -1.519465,0.0348 -3.246062,-0.004 -3.836879,-0.0868 z m 7.67717,-9.13847 c 2.687574,-0.65429 6.01626,-2.70603 8.313208,-5.12412 2.729396,-2.87334 2.985901,-6.00578 0.514608,-6.28432 -1.363753,-0.15372 -2.173506,0.53717 -3.67654,3.13685 -0.8564,1.48125 -2.986809,3.01908 -5.139986,3.71027 -3.507526,1.12597 -8.115552,-0.35133 -10.403131,-3.33517 -0.728363,-0.95005 -0.902185,-1.34189 -1.214972,-2.73884 -0.1296,-0.57881 -1.019083,-1.4321 -1.741302,-1.67046 -0.317867,-0.1049 -0.924411,-0.15168 -1.347874,-0.10395 -1.599469,0.18028 -1.947081,1.49093 -1.04847,3.95318 1.539214,4.21755 5.192447,7.34985 9.781249,8.38651 1.759564,0.3975 4.486571,0.42953 5.96321,0.0701 z m 6.59293,-17.37284 c 1.184824,-0.49505 2.171751,-1.90833 2.473857,-3.54258 0.317411,-1.71704 -0.39747,-3.15565 -1.920538,-3.86483 -1.743409,-0.81177 -3.008207,-0.31151 -3.883313,1.53595 -0.552255,1.16588 -0.6241,1.65715 -0.423431,2.89546 0.258795,1.59698 0.631352,2.20208 1.688718,2.74279 1.021082,0.52215 1.298255,0.55345 2.064707,0.23321 z M 49.80178,138.02143 c 0.195102,-0.10442 0.554009,-0.42668 0.797574,-0.71614 1.696537,-2.01622 1.284862,-5.71672 -0.753224,-6.77067 -1.460574,-0.75529 -3.423269,0.44141 -4.120302,2.51223 -0.834443,2.47906 0.131195,4.9379 2.070019,5.27096 0.687928,0.11818 1.438547,0.007 2.005933,-0.29638 z"
       id="path10" />
    <path
       style="fill:#0e2a63;fill-opacity:1;stroke:#0e2a63;stroke-width:0.447473;stroke-dasharray:none;stroke-opacity:1"
       d="m 147.8228,222.66541 c -1.70681,-0.18297 -2.19376,-0.47963 -4.70065,-2.86374 -2.47332,-2.3522 -2.88652,-2.6175 -4.07683,-2.6175 -1.12192,0 -1.67937,0.44443 -3.3229,2.64917 -1.41065,1.89235 -3.07318,2.67856 -5.66413,2.67856 -2.58039,0 -4.20208,-0.79789 -5.77517,-2.84146 -1.21522,-1.57865 -2.68688,-2.48706 -4.02576,-2.48495 -1.70019,0.003 -2.59321,0.44844 -4.27567,2.13425 -1.80757,1.81116 -2.84784,2.43078 -5.01166,2.98513 -2.79575,0.71624 -5.61924,-0.18515 -7.32011,-2.33692 -1.30833,-1.65515 -2.43666,-2.49169 -3.956972,-2.93365 -1.922954,-0.55902 -2.795077,-0.21963 -4.981381,1.93851 -1.089977,1.07593 -2.406934,2.08505 -3.445762,2.64031 -1.570228,0.83931 -1.814662,0.89859 -3.694184,0.89594 -2.507066,-0.004 -3.320513,-0.39357 -5.950529,-2.85313 -2.250893,-2.10501 -2.99037,-2.51949 -4.474539,-2.508 -1.989704,0.0154 -3.080446,0.71951 -5.287936,3.41346 -1.537515,1.87634 -1.993879,1.98068 -8.591878,1.96452 -6.369287,-0.0156 -6.407689,-0.025 -6.957998,-1.69241 -0.187747,-0.56887 -0.222162,-7.79734 -0.12201,-25.62678 l 0.139499,-24.83441 -2.195587,-0.14473 c -6.899842,-0.45483 -13.033308,-3.21926 -18.287697,-8.24249 -9.339552,-8.92867 -11.446966,-21.64281 -5.588336,-33.71474 2.744186,-5.6545 6.975429,-10.00113 12.208935,-12.54187 4.781315,-2.32121 5.133807,-2.43017 8.45111,-2.61215 3.27542,-0.17969 4.352369,-0.52074 4.86142,-1.53952 0.225865,-0.45203 0.302993,-4.03444 0.326272,-15.154417 0.01676,-8.009347 0.09826,-15.943878 0.181081,-17.63229 l 0.150597,-3.069841 0.804577,-0.541173 c 0.773619,-0.52035 0.993114,-0.541173 5.704471,-0.541173 6.628693,0 7.75087,0.376057 9.647862,3.233133 1.494456,2.250815 3.607337,3.066536 6.080595,2.347541 0.989797,-0.287742 1.5719,-0.641976 2.220161,-1.351062 3.408884,-3.72873 4.242001,-4.229612 7.035112,-4.229612 2.497446,0 3.523545,0.503533 5.801301,2.846845 2.267492,2.332753 3.494207,3.07285 5.093263,3.07285 1.521523,0 2.292883,-0.464744 4.757863,-2.866591 2.81306,-2.741029 4.17983,-3.41393 6.44614,-3.173638 2.29269,0.243089 2.94594,0.600872 5.34373,2.926734 2.77276,2.689588 3.06684,2.876707 4.52105,2.876707 1.62996,0 2.68022,-0.608625 5.09394,-2.951935 2.45116,-2.379658 3.0903,-2.730972 4.96839,-2.730972 2.47997,0 3.67702,0.77188 5.96131,3.843939 0.97707,1.314032 1.35749,1.640745 2.16303,1.857653 1.72815,0.465344 2.56941,0.02251 5.25783,-2.767713 l 2.36838,-2.458058 1.65751,-0.23322 c 4.23545,-0.595949 5.21513,-0.199616 5.54601,2.24367 0.10582,0.7814 0.1398,10.451222 0.0755,21.488494 l -0.11689,20.067769 3.28577,9.4e-4 c 5.07344,0.001 9.28584,0.84061 13.03511,2.59667 7.33969,3.43771 13.25316,10.70187 15.23546,18.71537 0.98142,3.96746 0.86813,10.26333 -0.25989,14.44197 -0.62668,2.3215 -2.96173,7.02391 -4.52684,9.11633 -2.79002,3.73004 -6.75397,7.0151 -10.48976,8.69323 -4.17768,1.87663 -8.11365,2.6484 -12.84818,2.51929 l -3.06174,-0.0835 -0.15502,6.72778 c -0.0853,3.70028 -0.15503,12.44737 -0.15503,19.43798 0,6.99061 -0.0706,14.49953 -0.15681,16.68649 -0.14193,3.59861 -0.2051,4.03241 -0.6651,4.56719 -0.57537,0.6689 -1.80203,0.83088 -4.28034,0.56521 z m -80.530226,-4.08 c 0.556179,-0.15444 1.482327,-0.78229 2.367878,-1.60524 3.075324,-2.8579 4.998896,-3.83393 7.582597,-3.84742 2.325559,-0.0121 3.789933,0.7393 6.539967,3.35594 1.456705,1.38605 2.809474,2.10325 3.981763,2.11101 1.008403,0.007 1.573388,-0.29183 2.885084,-1.52433 0.58605,-0.55066 1.889555,-1.59283 2.896677,-2.31593 3.070828,-2.20481 5.304814,-2.37838 8.77346,-0.68166 1.09504,0.53566 2.65896,1.57489 3.57841,2.37788 0.89828,0.78451 2.08322,1.59823 2.63319,1.80827 0.9475,0.36185 1.04814,0.3572 1.91857,-0.0886 0.50525,-0.25879 2.03745,-1.29379 3.4049,-2.3 2.95183,-2.17204 3.5934,-2.47173 5.65544,-2.6418 1.3445,-0.11089 1.81776,-0.033 3.3384,0.54921 1.43006,0.54756 2.11514,1.00297 3.55181,2.36109 2.07053,1.95732 2.51123,2.22432 3.67137,2.22432 0.75421,0 1.11957,-0.25019 3.04759,-2.08692 1.95834,-1.86561 2.35249,-2.13266 3.71679,-2.51822 1.93057,-0.54561 4.29098,-0.55254 5.60774,-0.0165 0.67054,0.27298 1.54866,1.01336 2.64729,2.23205 1.50226,1.66642 3.136,2.90387 3.43676,2.60311 0.14962,-0.14961 0.32971,-11.17872 0.49516,-30.32425 l 0.12618,-14.60112 -0.89453,-0.29453 c -3.13668,-1.03278 -7.33206,-3.60767 -10.1912,-6.25479 -3.94239,-3.65006 -6.78428,-8.67481 -7.90331,-13.97389 -0.19015,-0.90045 -0.29785,-3.28503 -0.29409,-6.51166 0.005,-4.71311 0.0511,-5.25892 0.61488,-7.35431 2.02566,-7.52895 8.69035,-15.12903 16.175,-18.44515 1.11383,-0.4935 2.05981,-0.93747 2.10217,-0.98661 0.0424,-0.0491 0.13769,-9.27967 0.21185,-20.512296 0.13373,-20.254458 0.13097,-20.422948 -0.33487,-20.422948 -0.86786,0 -1.78332,0.67327 -3.4907,2.56724 -1.86675,2.070743 -2.74299,2.561286 -4.99569,2.79674 -2.18728,0.228616 -3.5691,-0.228927 -5.58214,-1.848339 -0.95662,-0.76956 -1.97532,-1.78107 -2.26377,-2.2478 -1.20907,-1.956317 -2.93101,-1.806724 -5.2632,0.457241 -1.4665,1.423607 -4.86528,3.463151 -6.34313,3.806396 -1.34656,0.312752 -5.79687,-1.382044 -6.87656,-2.61878 -1.35716,-1.554548 -2.9341,-2.903053 -3.55407,-3.039222 -1.28066,-0.281279 -2.01897,0.104195 -4.07391,2.127001 -2.55559,2.51564 -3.92358,3.215927 -6.609527,3.383497 -2.870351,0.179075 -4.209921,-0.181601 -6.148666,-1.655512 -0.888163,-0.675217 -1.820524,-1.576271 -2.071912,-2.002343 -1.196593,-2.028074 -4.443001,-2.554658 -5.879378,-0.953666 -0.261468,0.291434 -0.877324,0.991014 -1.368572,1.554622 -1.010321,1.159144 -2.316949,1.890592 -4.677579,2.618504 -2.029333,0.625755 -3.341282,0.632347 -5.067974,0.02546 -1.813139,-0.637267 -2.849659,-1.414704 -3.844617,-2.883638 -1.297406,-1.915458 -2.042757,-2.190865 -6.17428,-2.281397 -2.889148,-0.06331 -3.499473,-0.016 -3.754247,0.290979 -0.238815,0.287753 -0.330414,3.951908 -0.425988,17.040216 -0.117847,16.138555 -0.107552,16.677575 0.320823,16.796265 0.243421,0.0674 1.02863,0.25444 1.744913,0.41554 7.517952,1.6909 15.018118,7.81373 18.680687,15.25016 2.181389,4.42906 2.98306,7.95063 2.966499,13.03121 -0.03059,9.38625 -4.061294,17.31056 -11.702098,23.00618 -2.795145,2.08357 -3.610578,2.49787 -6.650545,3.37897 -1.334056,0.38667 -2.986782,0.94818 -3.672728,1.24781 -1.168207,0.5103 -1.273092,0.62674 -1.656575,1.83912 -0.32536,1.02863 -0.362759,1.53902 -0.182184,2.48627 0.140266,0.73581 0.177515,8.53165 0.09734,20.37175 -0.07143,10.5489 -0.09675,20.37011 -0.05625,21.82492 l 0.07363,2.64511 1.465494,0.22537 c 2.053587,0.31581 4.614937,0.32905 5.693984,0.0294 z m 96.911686,-48.48717 c 3.7462,-1.29406 6.73407,-3.12875 9.39727,-5.77034 7.28258,-7.22353 9.63615,-17.47285 6.10664,-26.59315 -2.30646,-5.95991 -7.87334,-11.21934 -14.38286,-13.58852 -3.19804,-1.16394 -5.45266,-1.5062 -9.07477,-1.37755 -3.66994,0.13034 -5.15927,0.47306 -8.06091,1.85492 -6.96424,3.31662 -11.61594,8.60928 -13.61069,15.48614 -1.64,5.65384 -1.06253,12.71338 1.44859,17.70897 2.18615,4.3491 4.91463,7.19798 9.48546,9.90405 4.51846,2.67506 6.18061,3.06426 12.6214,2.95532 3.95664,-0.0669 4.8252,-0.14989 6.06987,-0.57984 z M 58.121536,165.56895 c 6.049043,-0.54569 10.262954,-2.49977 14.337542,-6.64862 1.130013,-1.15061 2.501772,-2.75055 3.048352,-3.55542 1.449662,-2.13473 3.000272,-5.55693 3.717367,-8.20425 0.567831,-2.09628 0.626569,-2.70693 0.621293,-6.45895 -0.0052,-3.72918 -0.06885,-4.37883 -0.635751,-6.49297 -0.774005,-2.8865 -1.60044,-4.68376 -3.396591,-7.38662 -2.494993,-3.75449 -4.900781,-5.94432 -8.487484,-7.72563 -4.494138,-2.23198 -8.998912,-3.05433 -14.088874,-2.57194 -5.944055,0.56333 -10.674475,2.71053 -14.884279,6.75617 -2.921075,2.80716 -4.824564,5.90197 -6.177659,10.044 -1.014319,3.10499 -1.279878,5.23888 -1.131796,9.09453 0.14221,3.70278 0.57405,5.76602 1.846676,8.823 1.547747,3.71786 5.099694,8.22714 8.075684,10.25228 1.725129,1.17394 4.618298,2.53948 6.825254,3.22143 3.382924,1.04534 5.896988,1.25293 10.330266,0.85299 z"
       id="path12" />
  </g>
</svg>
