<?xml version="1.0" encoding="UTF-8" standalone="no"?>
<!-- Created with Inkscape (http://www.inkscape.org/) -->

<svg
   width="140.67261mm"
   height="146.36095mm"
   viewBox="0 0 140.67261 146.36095"
   version="1.1"
   id="svg1"
   inkscape:version="1.4 (86a8ad7, 2024-10-11)"
   sodipodi:docname="optimized_bill_icon.svg"
   xmlns:inkscape="http://www.inkscape.org/namespaces/inkscape"
   xmlns:sodipodi="http://sodipodi.sourceforge.net/DTD/sodipodi-0.dtd"
   xmlns="http://www.w3.org/2000/svg"
   xmlns:svg="http://www.w3.org/2000/svg">
  <sodipodi:namedview
     id="namedview1"
     pagecolor="#ffffff"
     bordercolor="#000000"
     borderopacity="0.25"
     inkscape:showpageshadow="2"
     inkscape:pageopacity="0.0"
     inkscape:pagecheckerboard="0"
     inkscape:deskcolor="#d1d1d1"
     inkscape:document-units="mm"
     inkscape:zoom="1"
     inkscape:cx="161.5"
     inkscape:cy="268.5"
     inkscape:window-width="1840"
     inkscape:window-height="1057"
     inkscape:window-x="-8"
     inkscape:window-y="599"
     inkscape:window-maximized="1"
     inkscape:current-layer="layer3" />
  <defs
     id="defs1">
    <inkscape:path-effect
       effect="fill_between_many"
       method="originald"
       linkedpaths="#g2,0,1"
       id="path-effect8"
       is_visible="true"
       lpeversion="0"
       join="true"
       close="true"
       autoreverse="true" />
  </defs>
  <g
     inkscape:groupmode="layer"
     id="layer3"
     inkscape:label="Layer 2"
     style="display:inline"
     transform="translate(-8.150597,-1.3229147)">
    <path
       style="display:inline;fill:#0bb2a1;fill-opacity:1;stroke:#ffffff;stroke-width:19.6387;stroke-dasharray:none;stroke-opacity:1"
       d="m 346.7311,873.31681 c -14.56418,-0.7561 -20.36761,-1.68822 -21.4522,-3.44555 -3.1886,-5.16643 -3.7109,-45.91618 -4.00706,-312.62811 -0.34852,-313.86977 0.10628,-388.59584 2.41984,-397.59035 1.22964,-4.7805 2.75715,-6.65034 6.22647,-7.62187 2.52841,-0.70804 22.82736,-1.28734 45.10877,-1.28734 h 40.51166 l 3.65845,11.85623 c 7.98284,25.87062 17.84524,39.3029 40.51417,55.17906 24.59823,17.22734 64.48172,19.752 93.59783,5.92482 24.40942,-11.59198 47.82474,-40.15484 52.17461,-63.6445 l 1.72508,-9.31561 h 43.76571 c 43.55831,0 43.78058,0.0184 46.90149,3.87504 3.01581,3.72681 3.15397,13.57486 3.61173,257.44972 0.26177,139.46607 0.4282,261.95874 0.36982,272.20591 -0.0584,10.24718 -0.23965,55.17995 -0.40283,99.85061 -0.29469,80.67652 -0.32111,81.24537 -3.95253,85.11084 -3.62983,3.86378 -3.96577,3.89147 -47.20574,3.89147 h -43.54989 l -1.3788,-8.0453 c -0.75832,-4.42492 -1.41651,-8.80749 -1.46262,-9.73905 -0.0461,-0.93156 -0.46493,-2.07484 -0.93071,-2.54063 -0.46578,-0.46578 -2.37125,-3.86443 -4.23437,-7.55257 -9.44529,-18.69737 -25.80414,-34.36676 -46.57808,-44.615 -12.61854,-6.22502 -12.87619,-6.27238 -38.69892,-7.11361 -14.29769,-0.46578 -26.27724,-0.38829 -26.62122,0.1722 -0.34398,0.5605 -4.27069,2.40601 -8.72603,4.10111 -13.02163,4.95433 -24.24468,12.66083 -36.37407,24.97689 -13.85648,14.06973 -18.78117,23.70927 -23.99542,46.96847 l -0.94926,4.23437 -25.05025,0.18963 c -13.77764,0.10428 -34.03467,-0.27681 -45.01563,-0.84688 z"
       id="path12-4"
       transform="matrix(0.18667225,0,0,0.18667225,-17.072237,-20.995903)" />
    <path
       style="display:inline;fill:#0b2344;fill-opacity:1;stroke:#ffffff;stroke-width:0;stroke-dasharray:none;stroke-opacity:1"
       d="m 318.42466,901.38984 c -8.62914,-2.73509 -20.89092,-15.72479 -24.30674,-25.74966 -2.64176,-7.75313 -2.85101,-34.97783 -2.80891,-365.45667 0.0505,-396.58511 -0.9749,-363.14012 11.53118,-376.09749 13.21479,-13.69166 13.57589,-13.76577 69.89892,-14.34438 27.54405,-0.28296 53.76054,0.10256 58.25887,0.85671 11.17735,1.8739 14.09652,6.19892 16.11213,23.87161 2.76289,24.22472 15.0494,41.58321 37.09667,52.41047 8.55971,4.20361 11.3161,4.6756 27.30517,4.6756 16.25024,0 18.65912,-0.42949 27.92523,-4.97897 20.43202,-10.03173 33.37236,-28.10873 36.56785,-51.08345 0.98946,-7.11388 2.4287,-14.59059 3.19834,-16.6149 3.23034,-8.49639 3.80792,-8.58462 60.15709,-9.18874 34.78255,-0.37291 55.16452,0.0685 59.71303,1.29333 11.64093,3.13458 22.63764,11.76796 27.90568,21.9084 l 4.72004,9.08558 v 359.78248 c 0,301.42618 -0.37772,360.68649 -2.32873,365.35595 -3.66738,8.77722 -12.97918,18.21397 -22.21829,22.51641 -8.34408,3.88565 -9.38831,3.94971 -64.64764,3.96598 l -56.16655,0.0165 -4.13806,-4.9178 c -3.1779,-3.77672 -4.57207,-8.28002 -6.00858,-19.40815 -2.2062,-17.0909 -6.16038,-25.6071 -17.415,-37.50721 -15.63055,-16.52702 -38.0629,-23.47741 -60.604,-18.77746 -15.47244,3.22609 -24.43538,8.39316 -35.43408,20.4275 -9.70854,10.62269 -14.55849,21.88783 -16.30859,37.8805 -1.44449,13.19998 -3.52284,17.9893 -8.86226,20.4221 -5.6291,2.56479 -110.92472,2.26051 -119.14277,-0.34429 z m 103.3416,-35.14586 c 5.55035,-26.15446 24.90435,-49.71812 51.34928,-62.5182 l 14.08447,-6.81726 h 23.10614 c 25.6801,0 32.11774,1.46568 48.43051,11.02633 20.17961,11.82694 40.68056,37.8726 43.31488,55.02984 2.36544,15.40602 -2.66409,14.00464 47.24872,13.16481 24.35928,-0.40985 45.64462,-1.34271 47.30073,-2.07303 1.65611,-0.73031 3.94267,-2.95308 5.08124,-4.93949 1.60217,-2.79524 2.19508,-67.55186 2.62291,-286.46761 0.30403,-155.57077 0.0216,-315.1849 -0.62771,-354.69806 l -1.18047,-71.84212 -3.95312,-3.95311 c -3.94256,-3.94256 -4.07279,-3.95311 -48.79435,-3.95311 h -44.84122 l -1.92318,9.26391 c -2.89492,13.94472 -10.7562,28.08019 -22.92768,41.2265 -12.42198,13.41688 -22.8633,20.6881 -37.34786,26.00864 -8.27157,3.03835 -13.73013,3.68963 -31.1976,3.72229 -18.21428,0.0341 -22.59149,-0.51296 -31.33434,-3.91584 -29.67444,-11.54981 -49.82894,-34.22464 -59.26179,-66.67248 l -2.84517,-9.78704 -45.53088,0.50044 c -40.50591,0.44522 -45.85425,0.82412 -48.46091,3.43322 -2.24894,2.25105 -3.21916,7.36928 -4.17392,22.01873 -1.61452,24.77262 -1.61811,612.67241 -0.004,659.58738 0.86049,25.01108 1.88665,36.62112 3.3977,38.44181 2.82674,3.40603 8.59726,3.83536 56.29298,4.18823 l 39.99508,0.29592 z"
       id="path13"
       transform="matrix(0.18667225,0,0,0.18667225,-17.072237,-20.995903)" />
    <path
       d="m 88.503428,82.163874 c 1.951847,-4.38658 -1.305254,-4.98529 -3.127272,-4.3997 -6.055459,0.14852 -12.141155,-0.40468 -18.171642,0.41206 -1.608685,4.12876 1.586249,4.95121 3.320897,4.33754 5.992641,-0.0972 11.987574,-0.0532 17.978017,-0.3499 z m 3.023793,-16.74106 c 1.405127,-4.44922 -1.788853,-4.36245 -3.470603,-4.03012 -7.159843,0.12598 -14.338354,-0.28049 -21.483179,0.39471 -2.052412,3.89632 1.630808,5.21178 3.413739,4.43609 h 21.176409 c 0.121214,-0.26689 0.242427,-0.53378 0.363634,-0.80068 z m 5.667994,-16.55654 c 1.265516,-4.68448 -2.095021,-3.70789 -3.711869,-3.77292 -11.428289,-0.16081 -22.891248,-0.54074 -34.296942,0.38988 -1.448696,2.2537 0.557479,5.65584 2.41349,4.25357 h 35.330879 c 0.08815,-0.29018 0.176295,-0.58035 0.264442,-0.87053 z m -0.248046,-15.5139 c 2.316767,-4.032787 -1.291312,-5.117721 -3.0965,-4.398414 L 56.710635,28.839 c -3.142707,7.422664 5.520136,3.778444 7.801474,4.722144 10.811387,-10e-4 21.625118,0.0757 32.43506,-0.20877 z"
       style="display:inline;fill:#0b2344;fill-opacity:1;stroke-width:0.169625"
       id="path1-7" />
    <path
       d="m 77.088198,123.47151 c 1.268739,-5.19315 -4.682193,-3.37486 -7.311763,-5.97396 -5.02781,-3.0908 2.532494,-6.25594 4.334926,-2.12289 4.489658,2.73937 4.031428,-8.179 1.214719,-9.17428 -6.401197,-1.06964 -9.954981,-10.310163 -3.21623,-13.544992 3.930171,-0.689083 5.09878,-1.995155 5.487577,-5.303156 3.886097,-0.581939 1.152224,5.891936 6.088231,5.220525 4.293676,0.348541 4.140264,7.08943 0.464612,4.76969 -2.799709,-3.620684 -4.985543,-1.636443 -4.022846,1.95014 0.04936,2.065323 -0.741099,4.681433 2.127535,4.871053 7.780792,1.25167 9.617469,12.87855 1.243593,14.81788 -5.83193,-0.49035 -1.044727,6.28535 -6.410354,4.48999 z m 4.505829,-8.16662 c 7.280606,-1.26155 -2.350693,-12.39648 -1.46469,-4.4911 0.421416,1.16216 -1.143413,5.96847 1.46469,4.4911 z M 76.836635,98.839657 c 1.794548,-4.851015 -3.701997,-4.359821 -4.269474,0.013 1.028631,4.417263 5.535059,5.402123 4.269474,-0.013 z"
       style="fill:#ffffff;fill-opacity:1;stroke:#ffffff;stroke-width:0.981;stroke-dasharray:none;stroke-opacity:1"
       id="path1-4" />
    <g
       id="g1"
       transform="translate(4.7625)">
      <path
         style="display:inline;fill:#8941d7;fill-opacity:1;stroke:#0b2344;stroke-width:7.389;stroke-dasharray:none;stroke-opacity:1"
         d="m 27.7261,99.05252 c -2.874148,-0.40165 -5.697339,-1.29716 -8.216352,-2.606214 -3.219938,-1.67329 -5.56541,-3.74083 -7.763054,-6.84317 -2.0922243,-2.95353 -3.2543194,-5.51347 -4.0698364,-8.96529 -0.513236,-2.17236 -0.71174,-6.46405 -0.405312,-8.76287 0.442816,-3.322 1.583623,-6.73619 3.1874464,-9.5393 3.260224,-5.69814 9.046241,-9.85796 15.792214,-11.3537 1.964844,-0.43566 6.443197,-0.60657 8.582811,-0.32755 3.808747,0.49669 7.878137,2.01424 10.709724,3.99387 2.675782,1.8707 3.836751,3.11974 6.104172,6.56717 1.833989,2.78845 2.69961,4.87857 3.348924,8.08629 1.40294,6.93077 0.06182,13.60741 -3.952506,19.67729 -1.198298,1.81188 -4.540913,5.20384 -6.254047,6.34637 -3.903759,2.603504 -7.659041,3.686284 -13.227305,3.813904 -1.519465,0.0348 -3.246062,-0.004 -3.836879,-0.0868 z m 7.67717,-9.138474 c 2.687574,-0.65429 6.01626,-2.70603 8.313208,-5.12412 2.729396,-2.87334 2.985901,-6.00578 0.514608,-6.28432 -1.363753,-0.15372 -2.173506,0.53717 -3.67654,3.13685 -0.8564,1.48125 -2.986809,3.01908 -5.139986,3.71027 -3.507526,1.12597 -8.115552,-0.35133 -10.403131,-3.33517 -0.728363,-0.95005 -0.902185,-1.34189 -1.214972,-2.73884 -0.1296,-0.57881 -1.019083,-1.4321 -1.741302,-1.67046 -0.317867,-0.1049 -0.924411,-0.15168 -1.347874,-0.10395 -1.599469,0.18028 -1.947081,1.49093 -1.04847,3.95318 1.539214,4.21755 5.192447,7.34985 9.781249,8.38651 1.759564,0.3975 4.486571,0.42953 5.96321,0.0701 z m 6.59293,-17.37284 c 1.184824,-0.49505 2.171751,-1.90833 2.473857,-3.54258 0.317411,-1.71704 -0.39747,-3.15565 -1.920538,-3.86483 -1.743409,-0.81177 -3.008207,-0.31151 -3.883313,1.53595 -0.552255,1.16588 -0.6241,1.65715 -0.423431,2.89546 0.258795,1.59698 0.631352,2.20208 1.688718,2.74279 1.021082,0.52215 1.298255,0.55345 2.064707,0.23321 z m -16.349401,-0.74741 c 0.195102,-0.10442 0.554009,-0.42668 0.797574,-0.71614 1.696537,-2.01622 1.284862,-5.71672 -0.753224,-6.77067 -1.460574,-0.75529 -3.423269,0.44141 -4.120302,2.51223 -0.834443,2.47906 0.131195,4.9379 2.070019,5.27096 0.687928,0.11818 1.438547,0.007 2.005933,-0.29638 z"
         id="path10-2" />
      <path
         style="display:inline;fill:#8941d7;fill-opacity:1;stroke:#8941d7;stroke-width:0.488641;stroke-dasharray:none;stroke-opacity:1"
         d="m 27.7261,99.05252 c -2.874148,-0.40165 -5.697339,-1.29716 -8.216352,-2.606214 -3.219938,-1.67329 -5.56541,-3.74083 -7.763054,-6.84317 -2.0922243,-2.95353 -3.2543194,-5.51347 -4.0698364,-8.96529 -0.513236,-2.17236 -0.71174,-6.46405 -0.405312,-8.76287 0.442816,-3.322 1.583623,-6.73619 3.1874464,-9.5393 3.260224,-5.69814 9.046241,-9.85796 15.792214,-11.3537 1.964844,-0.43566 6.443197,-0.60657 8.582811,-0.32755 3.808747,0.49669 7.878137,2.01424 10.709724,3.99387 2.675782,1.8707 3.836751,3.11974 6.104172,6.56717 1.833989,2.78845 2.69961,4.87857 3.348924,8.08629 1.40294,6.93077 0.06182,13.60741 -3.952506,19.67729 -1.198298,1.81188 -4.540913,5.20384 -6.254047,6.34637 -3.903759,2.603504 -7.659041,3.686284 -13.227305,3.813904 -1.519465,0.0348 -3.246062,-0.004 -3.836879,-0.0868 z m 7.67717,-9.138474 c 2.687574,-0.65429 6.01626,-2.70603 8.313208,-5.12412 2.729396,-2.87334 2.985901,-6.00578 0.514608,-6.28432 -1.363753,-0.15372 -2.173506,0.53717 -3.67654,3.13685 -0.8564,1.48125 -2.986809,3.01908 -5.139986,3.71027 -3.507526,1.12597 -8.115552,-0.35133 -10.403131,-3.33517 -0.728363,-0.95005 -0.902185,-1.34189 -1.214972,-2.73884 -0.1296,-0.57881 -1.019083,-1.4321 -1.741302,-1.67046 -0.317867,-0.1049 -0.924411,-0.15168 -1.347874,-0.10395 -1.599469,0.18028 -1.947081,1.49093 -1.04847,3.95318 1.539214,4.21755 5.192447,7.34985 9.781249,8.38651 1.759564,0.3975 4.486571,0.42953 5.96321,0.0701 z m 6.59293,-17.37284 c 1.184824,-0.49505 2.171751,-1.90833 2.473857,-3.54258 0.317411,-1.71704 -0.39747,-3.15565 -1.920538,-3.86483 -1.743409,-0.81177 -3.008207,-0.31151 -3.883313,1.53595 -0.552255,1.16588 -0.6241,1.65715 -0.423431,2.89546 0.258795,1.59698 0.631352,2.20208 1.688718,2.74279 1.021082,0.52215 1.298255,0.55345 2.064707,0.23321 z m -16.349401,-0.74741 c 0.195102,-0.10442 0.554009,-0.42668 0.797574,-0.71614 1.696537,-2.01622 1.284862,-5.71672 -0.753224,-6.77067 -1.460574,-0.75529 -3.423269,0.44141 -4.120302,2.51223 -0.834443,2.47906 0.131195,4.9379 2.070019,5.27096 0.687928,0.11818 1.438547,0.007 2.005933,-0.29638 z"
         id="path10-5" />
    </g>
    <g
       id="g14"
       style="display:inline"
       transform="matrix(0.18667225,0,0,0.18667225,-22.363904,-20.995903)">
      <path
         style="fill:#fb8f27;fill-opacity:1;stroke:#0b2344;stroke-width:39.5827;stroke-dasharray:none;stroke-opacity:1"
         d="m 745.62366,643.14178 c -16.59194,-2.55603 -38.83741,-13.85454 -57.43504,-29.17133 -16.44939,-13.54755 -30.01276,-34.73621 -37.03723,-57.85948 -3.52388,-11.59994 -3.88389,-14.87633 -3.9713,-36.14289 -0.10545,-25.64397 1.77361,-35.51883 10.36347,-54.46339 16.57417,-36.55353 57.13614,-67.92186 94.74642,-73.2715 13.18636,-1.87561 36.18639,-0.78469 47.64314,2.25978 39.11389,10.39397 74.42268,40.08156 88.18023,74.14187 8.76731,21.70565 11.35162,47.48124 7.0548,70.3634 -8.70278,46.34544 -43.08934,86.49602 -87.03109,101.61963 -9.18982,3.1629 -48.15383,4.73602 -62.5134,2.52391 z m 38.15217,-44.47481 c 27.1048,-7.2132 49.67215,-29.03802 49.67215,-48.03782 0,-8.25258 -2.80198,-12.23529 -8.60796,-12.23529 -6.51923,0 -8.12702,1.30176 -14.7682,11.95711 -7.11728,11.4192 -14.17867,17.78981 -25.20231,22.73691 -24.03071,10.7843 -53.53958,0.63723 -64.60183,-22.21431 -3.85336,-7.95999 -5.63163,-9.5531 -11.77642,-10.55026 -7.28662,-1.18246 -12.54676,3.57903 -12.4658,11.28408 0.1365,12.98497 6.70726,23.2173 21.01914,32.73181 8.28668,5.50899 25.3552,13.34895 33.48734,15.38151 6.10518,1.52595 25.90906,0.89822 33.24389,-1.05374 z m 28.63928,-95.88545 c 3.56555,-1.82293 8.03901,-9.88472 9.07296,-16.35073 0.67991,-4.25196 0.17037,-7.46753 -1.9389,-12.23589 -7.50424,-16.9646 -29.40953,-13.49504 -32.198,5.09981 -2.89696,19.31836 9.85135,31.26448 25.06394,23.48681 z M 723.038,501.13504 c 15.38947,-10.35963 11.04648,-39.27906 -5.89875,-39.27906 -10.8826,0 -17.82056,10.42871 -16.61438,24.97367 0.84854,10.23214 6.26639,15.83522 16.84365,17.41954 0.46938,0.0703 3.02064,-1.33106 5.66948,-3.11415 z"
         id="path11" />
      <path
         style="display:inline;fill:#fb8f27;fill-opacity:1;stroke:#0b2344;stroke-width:1.60709;stroke-dasharray:none;stroke-opacity:1"
         d="m 745.62366,643.14178 c -16.59194,-2.55603 -38.83741,-13.85454 -57.43504,-29.17133 -16.44939,-13.54755 -30.01276,-34.73621 -37.03723,-57.85948 -3.52388,-11.59994 -3.88389,-14.87633 -3.9713,-36.14289 -0.10545,-25.64397 1.77361,-35.51883 10.36347,-54.46339 16.57417,-36.55353 57.13614,-67.92186 94.74642,-73.2715 13.18636,-1.87561 36.18639,-0.78469 47.64314,2.25978 39.11389,10.39397 74.42268,40.08156 88.18023,74.14187 8.76731,21.70565 11.35162,47.48124 7.0548,70.3634 -8.70278,46.34544 -43.08934,86.49602 -87.03109,101.61963 -9.18982,3.1629 -48.15383,4.73602 -62.5134,2.52391 z m 38.15217,-44.47481 c 27.1048,-7.2132 49.67215,-29.03802 49.67215,-48.03782 0,-8.25258 -2.80198,-12.23529 -8.60796,-12.23529 -6.51923,0 -8.12702,1.30176 -14.7682,11.95711 -7.11728,11.4192 -14.17867,17.78981 -25.20231,22.73691 -24.03071,10.7843 -53.53958,0.63723 -64.60183,-22.21431 -3.85336,-7.95999 -5.63163,-9.5531 -11.77642,-10.55026 -7.28662,-1.18246 -12.54676,3.57903 -12.4658,11.28408 0.1365,12.98497 6.70726,23.2173 21.01914,32.73181 8.28668,5.50899 25.3552,13.34895 33.48734,15.38151 6.10518,1.52595 25.90906,0.89822 33.24389,-1.05374 z m 28.63928,-95.88545 c 3.56555,-1.82293 8.03901,-9.88472 9.07296,-16.35073 0.67991,-4.25196 0.17037,-7.46753 -1.9389,-12.23589 -7.50424,-16.9646 -29.40953,-13.49504 -32.198,5.09981 -2.89696,19.31836 9.85135,31.26448 25.06394,23.48681 z M 723.038,501.13504 c 15.38947,-10.35963 11.04648,-39.27906 -5.89875,-39.27906 -10.8826,0 -17.82056,10.42871 -16.61438,24.97367 0.84854,10.23214 6.26639,15.83522 16.84365,17.41954 0.46938,0.0703 3.02064,-1.33106 5.66948,-3.11415 z"
         id="path14" />
    </g>
  </g>
</svg>
