<?xml version="1.0" encoding="UTF-8" standalone="no"?>
<!-- Created with Inkscape (http://www.inkscape.org/) -->

<svg
   version="1.1"
   id="svg1"
   width="440.39462"
   height="784.0531"
   viewBox="0 0 440.39462 784.0531"
   sodipodi:docname="ticket_icon_1.svg"
   inkscape:version="1.4 (86a8ad7, 2024-10-11)"
   xmlns:inkscape="http://www.inkscape.org/namespaces/inkscape"
   xmlns:sodipodi="http://sodipodi.sourceforge.net/DTD/sodipodi-0.dtd"
   xmlns="http://www.w3.org/2000/svg"
   xmlns:svg="http://www.w3.org/2000/svg">
  <defs
     id="defs1" />
  <sodipodi:namedview
     id="namedview1"
     pagecolor="#ffffff"
     bordercolor="#000000"
     borderopacity="0.25"
     inkscape:showpageshadow="2"
     inkscape:pageopacity="0.0"
     inkscape:pagecheckerboard="0"
     inkscape:deskcolor="#d1d1d1"
     inkscape:zoom="0.59040654"
     inkscape:cx="262.53097"
     inkscape:cy="520.82756"
     inkscape:window-width="1840"
     inkscape:window-height="1057"
     inkscape:window-x="-8"
     inkscape:window-y="599"
     inkscape:window-maximized="1"
     inkscape:current-layer="g1" />
  <g
     inkscape:groupmode="layer"
     inkscape:label="Image"
     id="g1"
     transform="translate(-291.30459,-119.56152)">
    <g
       id="g2"
       style="display:none">
      <path
         style="fill:#6e6e6e;fill-opacity:1"
         d="M 319.97311,902.72313 C 297.32759,896.33469 287.03988,870.95018 289.92412,849.06325 290.11608,616.8755 290.30804,384.68775 290.5,152.5 c 5.80532,-21.18361 27.03729,-36.98076 49.24118,-33.0736 32.02848,0.4601 64.69333,-1.5002 96.32602,0.46526 18.26971,7.66054 7.10555,31.50789 17.23451,45.11687 10.31417,25.17019 38.85583,39.67487 65.41666,36.33754 31.80003,-2.15936 58.01827,-32.04311 57.3707,-63.84613 -1.25393,-14.31383 14.13824,-21.19758 26.47885,-18.5 32.12501,0.69651 64.65261,-1.38117 96.52939,1.0259 23.00097,4.41629 37.70497,28.59089 33.90472,51.1929 C 732.83469,404.97916 732.66734,638.73958 732.5,872.5 c -6.74866,22.15991 -29.9942,35.99975 -52.67825,32.5 -30.41901,-0.43532 -61.15548,0.8632 -91.37908,-0.63938 -17.83037,-5.57755 -9.21078,-27.17717 -16.38982,-40.03396 -11.44962,-35.21538 -56.26555,-52.23174 -88.98099,-35.81935 -24.17577,11.08586 -38.19977,37.81034 -36.10476,63.99269 -5.23688,16.69435 -24.31605,11.96308 -37.73141,12.46289 -28.65517,-0.76694 -57.8178,1.52459 -86.15168,-1.1788 l -1.708,-0.5825 z M 417.38086,869.25 c 6.61139,-43.27399 47.24896,-76.52498 90.50489,-77.69368 47.12041,-2.59535 93.88522,34.3034 98.63858,81.94368 28.87513,-0.52652 58.15753,1.89176 86.77349,-0.50868 12.7245,-4.01012 6.04631,-20.89966 7.69497,-30.95104 0.003,-228.19842 0.005,-456.39685 0.008,-684.59527 -8.06468,-13.11189 -26.12271,-5.35866 -38.80926,-7.44501 -18.38421,0 -36.76843,0 -55.15264,0 -4.5739,40.33999 -37.44009,73.7677 -76.83016,81.75009 -22.55043,2.52649 -46.34381,1.27974 -66.364,-10.75555 -26.14871,-14.16232 -44.34191,-41.42312 -47.34446,-71.04498 -28.7852,0.18372 -57.57039,0.36744 -86.35559,0.55117 -14.00977,7.35289 -6.03323,25.29717 -8.11613,37.8735 -0.009,225.44358 -0.0188,450.88715 -0.0282,676.33073 6.08049,14.9375 24.22952,7.53813 36.56891,9.27563 19.39111,0.007 38.78223,0.0129 58.17335,0.0194 0.21284,-1.58332 0.42568,-3.16663 0.63852,-4.74995 z M 603,853.5 c 1.14484,-2.16789 1.24738,2.06934 0,0 z m -2,-5 c 1.14484,-2.16789 1.24738,2.06934 0,0 z m -173,-13 c 1.14484,-2.16789 1.24738,2.06934 0,0 z m 56,-42 c 1.14484,-2.16789 1.24738,2.06934 0,0 z m 4,-1 c 1.14484,-2.16789 1.24738,2.06934 0,0 z m 211,-8 c 1.14484,-2.16789 1.24738,2.06934 0,0 z m 0,-34 c 1.14484,-2.16789 1.24738,2.06934 0,0 z m 0,-88 c 1.14484,-2.16789 1.24738,2.06934 0,0 z m -181,-15 c 1.14484,-2.16789 1.24738,2.06934 0,0 z m -23.3162,-2.90306 C 478.38995,639.24915 485.49916,618.9523 484,606.12883 c 0,-22.70961 0,-45.41922 0,-68.12883 -31.90141,0 -63.80282,0 -95.70423,0 -16.50007,-7.14 -9.27619,-26.96415 -10.79577,-40.93675 5.35933,-16.63481 24.67851,-10.52311 37.921,-11.56325 22.85948,0 45.71896,0 68.57844,0 0.61202,-32.11149 -1.16212,-64.8455 0.91443,-96.57491 7.09975,-17.05001 28.36203,-9.10589 42.6994,-10.44928 14.41031,4.30714 11.40905,20.70992 11.38667,32.47509 0,24.65852 0,49.31705 0,73.97557 31.88597,0.19118 63.77195,0.38236 95.65792,0.57353 15.99731,7.53419 8.75716,26.78972 10.34208,40.69774 -3.6137,14.97613 -20.40527,11.79239 -32.11934,11.80226 -24.62686,0 -49.25373,0 -73.8806,0 0,32.23474 0,64.46949 0,96.70423 -7.04115,16.26406 -26.64847,9.58436 -40.5,11.29949 -1.27207,-0.46893 -2.54413,-0.93785 -3.8162,-1.40678 z M 489,644.5 c 1.14484,-2.16789 1.24738,2.06934 0,0 z m 210,-46 c 1.14484,-2.16789 1.24738,2.06934 0,0 z m -291,-58 c 1.14484,-2.16789 1.24738,2.06934 0,0 z m 291,-15 c 1.14484,-2.16789 1.24738,2.06934 0,0 z m 0,-38 c 1.14484,-2.16789 1.24738,2.06934 0,0 z m -283,-4 c 1.14484,-2.16789 1.24738,2.06934 0,0 z m 213,0 c 1.14484,-2.16789 1.24738,2.06934 0,0 z m -89,-97 c 1.14484,-2.16789 1.24738,2.06934 0,0 z m 159,-5 c 1.14484,-2.16789 1.24738,2.06934 0,0 z m -375,-61 c 1.14484,-2.16789 1.24738,2.06934 0,0 z m 375,-17 c 1.14484,-2.16789 1.24738,2.06934 0,0 z m 0,-20 c 1.14484,-2.16789 1.24738,2.06934 0,0 z m 0,-38 c 1.14484,-2.16789 1.24738,2.06934 0,0 z m -198,-11 c 1.14484,-2.16789 1.24738,2.06934 0,0 z m -12,-2 c 1.14484,-2.16789 1.24738,2.06934 0,0 z m -49,-25 c 1.14484,-2.16789 1.24738,2.06934 0,0 z m 259,-36 c 1.14484,-2.16789 1.24738,2.06934 0,0 z m -95,-3 c 1.14484,-2.16789 1.24738,2.06934 0,0 z m -188,-7 c 1.14484,-2.16789 1.24738,2.06934 0,0 z"
         id="path3" />
      <path
         style="fill:#333333;fill-opacity:1"
         d="m 323,903.56703 c -23.76558,-5.26479 -36.01534,-30.85974 -32.98842,-53.69919 0.19472,-230.04164 -0.38883,-460.14658 0.29164,-690.14871 1.02628,-25.31982 26.09165,-44.45604 50.82894,-40.67612 31.2231,0.5263 62.93823,-1.09543 93.86067,0.74328 12.12078,3.1539 12.36687,16.0821 12.70997,26.26695 2.73466,31.56298 32.49038,56.88358 63.91519,55.94675 29.87106,0.58194 57.85888,-22.00649 63.2776,-51.47435 1.83509,-10.9603 -0.5835,-27.07205 13.44156,-30.85734 35.69093,-1.27385 72.08485,-0.72885 107.92219,-0.21402 21.60753,3.27076 39.77837,24.16783 36.24153,46.37872 0,234.889 0,469.778 0,704.667 -4.90966,21.71882 -27.2848,37.41493 -49.43762,34 -31.90613,0 -63.81227,0 -95.7184,0 -16.9609,-8.1364 -7.90077,-29.20622 -16.02387,-42.88806 -10.36975,-26.28617 -39.24798,-42.43697 -67.03935,-39.1093 -27.23722,2.35683 -51.90496,24.24216 -56.19324,51.56138 -1.97325,10.38551 1.13573,24.53337 -11.27651,29.44656 -21.35082,3.39158 -43.84587,0.48708 -65.64994,1.38471 C 355.21136,904.06249 338.6418,906.47151 323,903.56703 Z M 417.43481,871.75 c 5.69824,-46.30633 51.36627,-82.94805 97.67437,-79.1969 44.66742,-0.54149 86.56568,36.93479 91.12681,81.50629 29.5757,-0.18647 59.1514,-0.37293 88.7271,-0.55939 11.80498,-7.81622 4.56999,-23.52578 6.55767,-35.41192 0.16253,-226.0894 0.32507,-452.1788 0.4876,-678.2682 -3.91657,-15.40683 -22.6683,-8.20145 -34.17335,-9.81988 -20.48167,0 -40.96334,0 -61.44501,0 -4.41335,46.46794 -48.16473,83.14363 -94.23378,83.00305 -44.38094,0.75686 -87.8292,-32.4478 -94.28614,-77.28272 -0.36954,-11.80239 -18.14899,-3.02517 -26.22502,-5.71799 -20.80806,0.6256 -42.31753,-1.24617 -62.68585,0.94508 -12.4473,5.84838 -4.88202,22.63326 -6.95892,33.44761 0.003,227.03517 0.005,454.07033 0.008,681.10549 5.06617,14.10454 22.54761,6.46203 33.75681,8.41028 20.39903,0.03 40.79806,0.0595 61.19709,0.0892 l 0.37118,-1.76601 z m 74.51714,-229.0034 c -12.58799,-8.02464 -5.04296,-25.21428 -7.04967,-37.54525 0.0331,-22.40045 0.0662,-44.8009 0.0993,-67.20135 -31.92957,-0.5495 -64.36943,1.0802 -95.98712,-0.8012 -16.31994,-4.59726 -8.90288,-23.75033 -10.51447,-36.20303 -1.98207,-13.95561 15.01811,-16.83645 25.43675,-14.99326 27.03064,-10e-4 54.06129,-0.002 81.09193,-0.003 0.58225,-32.5019 -1.28696,-65.66591 0.81369,-97.7577 6.65707,-15.03307 25.42054,-7.43583 38.20319,-9.2423 14.93318,-0.32673 16.30512,17.39169 14.95436,28.66512 0,26.11193 0,52.22385 0,78.33577 31.96516,0.58422 64.51263,-1.14941 96.12152,0.8529 15.86316,7.0912 7.98132,27.37588 9.37848,41.00517 -7.6902,15.55213 -26.57214,7.9152 -40.32232,9.81987 -21.72587,0.12601 -43.45174,0.25203 -65.17761,0.37804 -0.57739,32.00142 1.13657,64.57138 -0.8436,96.22472 -5.62562,16.87576 -26.09078,8.92528 -39.37508,10.7193 -2.78334,0.55258 -4.7525,-0.51201 -6.82937,-2.2534 z"
         id="path2" />
    </g>
    <path
       id="path5"
       style="fill:#ffffff;fill-opacity:1;stroke:#ffffff;stroke-width:2.2633"
       d="m 648.60547,150.35547 c -38.98413,-0.0607 -41.39063,0.0607 -41.39063,2.07812 0,1.17806 -0.72506,4.93072 -1.60937,8.33985 -1.11559,4.3007 -1.22568,6.58096 -0.35938,7.44726 0.86629,0.86629 0.70414,1.24805 -0.52929,1.24805 -1.02104,0 -2.65618,2.37133 -3.8418,5.57031 -5.29419,14.28445 -20.84835,32.70728 -36.24023,42.92383 -7.64808,5.07651 -23.80367,12.54867 -27.1836,12.57227 -1.59451,0.0111 -1.88901,12.24348 -1.97851,51.06445 h -1.1211 c 0.01,-32.94636 -0.11552,-49.90022 -0.63476,-49.99219 -0.43166,-0.0764 -4.68466,0.19337 -9.45313,0.59961 -20.08323,1.71093 -30.73668,0.68941 -44.82031,-4.30078 -26.20237,-9.28415 -47.8571,-30.27479 -57.7793,-56.00391 -2.05399,-5.32617 -4.06738,-12.10378 -4.47265,-15.06054 -0.15332,-1.11859 -0.31505,-2.01244 -0.50586,-2.75391 -0.0589,-0.34405 -0.1901,-0.67575 -0.36133,-0.95898 -0.54504,-1.3576 -1.3107,-2.02407 -2.69336,-2.3711 -1.55353,-0.38992 -21.06784,-0.51676 -43.36524,-0.28125 -27.11829,0.28643 -37.18491,0.34784 -41.69726,2.06055 -0.0155,0.007 -0.1256,0.0125 -0.13867,0.0195 -0.007,0.004 -0.018,0.0194 -0.0254,0.0234 -2.76971,1.09876 -3.40357,2.85412 -4.62305,5.77148 -0.57396,1.37308 -0.92382,18.05693 -1.16797,54.25782 -0.0161,2.4703 -0.0438,3.7739 -0.0586,6.48046 -0.0708,12.45776 -0.0895,44.6488 -0.13672,62.50977 h -1.04883 -0.39648 v 88.40234 c -2e-5,48.62141 -0.0895,142.87018 -0.19922,209.44141 l -0.19922,121.03906 h 1.60351 c 0.0204,43.42277 0.10189,81.34956 0.29102,104.67578 0.28527,51.4869 0.85087,61.42287 2.08398,63.44532 1.30528,2.14082 2.51704,3.99413 2.69141,4.11914 0.0539,0.0387 9.42405,0.2067 12.50781,0.29296 2.20561,0.10667 6.68212,0.15461 9.80469,0.22852 7.06157,0.15926 8.23412,0.2471 18.125,0.42383 22.0669,0.3943 42.05757,0.8313 44.42383,0.9707 l 4.30273,0.25195 0.22461,-1.13671 h 0.1543 v -0.78711 l 1.45898,-7.40625 c 1.01098,-5.13161 3.91276,-14.15689 6.44727,-20.05664 4.20724,-9.79349 5.70394,-11.82502 17.21289,-23.34961 13.1803,-13.1982 23.83178,-20.33081 38.07031,-25.49414 2.28468,-0.8285 4.14348,-1.62894 5.55274,-2.30664 0.60757,0.49847 1.4899,0.10228 1.76367,-0.97461 0.0212,-0.0211 0.17071,-0.0833 0.18359,-0.10157 0.34537,-0.48966 10.9898,-0.78588 23.6543,-0.6582 l 20.25,0.20508 1.57812,0.30469 0.002,-0.28907 1.19726,0.0117 v -19.54101 c -3.2e-4,-11.95697 0.51181,-20.49905 1.32032,-22.00977 0.34529,-0.64518 0.38398,-1.03414 0.4746,-1.46875 v 43.86524 l 8.98243,3.30078 c 21.90707,8.05233 42.68098,25.77262 52.17383,44.50586 1.628,3.21271 3.54753,5.84179 4.26562,5.84179 0.71809,0 0.98639,0.8288 0.59766,1.8418 -0.40853,1.06463 0.0721,2.13957 1.13867,2.54883 1.01483,0.38942 1.56095,1.45036 1.21289,2.35742 -0.34807,0.90704 0.21419,5.40158 1.25,9.98828 l 1.88281,8.33985 13.95117,0.46679 c 7.673,0.2567 27.15449,0.24651 43.29297,-0.0234 l 29.34375,-0.49218 3.29297,-3.60547 3.29297,-3.60547 v -40.04688 c 0,-31.1893 -0.33016,-40.06897 -1.49609,-40.14257 -1.1071,-0.0699 -1.12647,-0.24669 -0.0723,-0.67578 2.06682,-0.84123 2.12779,-32.30145 0.0644,-33.26563 -1.15615,-0.54027 -1.16439,-0.85021 -0.0371,-1.38086 1.11755,-0.52607 1.60927,-25.88076 1.54102,-49.16797 h 1.04883 0.24219 0.21289 0.0859 l -0.26172,-9.05859 c -0.1486,-5.14331 -0.28356,-25.21587 -0.36328,-46.82227 0.1821,-9.70492 0.17583,-16.44192 -0.01,-24.35547 -0.009,-10.52039 -0.0557,-23.29434 -0.0117,-29.34961 0.058,-7.9869 0.095,-20.92192 0.082,-28.74414 -0.013,-7.82222 -0.013,-39.62024 0,-70.66211 0.0131,-31.04187 0.0206,-61.49252 0.0176,-67.66796 -0.003,-6.17544 -0.009,-21.73713 -0.0137,-34.58204 -0.006,-15.32862 -0.0309,-22.43559 -0.0449,-34.30468 0.004,-0.32134 0.014,-0.50746 0.0176,-0.83203 0.0206,-1.13816 0.0607,-1.86378 0.0781,-3.03907 0.003,-0.17043 -0.006,-0.45109 -0.004,-0.625 0.0404,-5.63194 -0.0365,-9.74573 -0.0801,-15.07422 -0.007,-0.63172 5e-4,-1.1507 -0.008,-1.78515 -0.004,-6.69114 -0.0272,-12.18085 -0.0586,-18.56446 -0.0134,-4.41602 -0.0366,-5.57845 -0.0527,-8.99609 -0.026,-3.43588 -0.0378,-7.09643 -0.0723,-9.93555 0.0847,-2.44465 0.0672,-5.06027 -0.0801,-7.21289 -0.0166,-0.65838 -0.0229,-4.54098 -0.041,-4.72656 L 701.08008,281.75 h -0.1875 l -0.0371,-0.15039 h -0.0137 -1.1875 c 0.69039,-1.86334 0.97656,-6.93908 0.97656,-17.61523 0,-13.44322 -0.36956,-17.88789 -1.49609,-17.95899 -1.19766,-0.0756 -1.19766,-0.21595 0,-0.69922 2.11497,-0.8534 2.17311,-71.11012 0.0605,-73.22265 -1.11782,-1.11782 -1.11782,-1.4375 0,-1.4375 0.93743,0 1.43555,-2.21209 1.43555,-6.36133 0,-6.86338 -2.36871,-10.74074 -7.82813,-12.81641 -1.54422,-0.58711 -21.43233,-1.09741 -44.19726,-1.13281 z m 41.45508,79.58008 c 0.87899,-0.15984 2.1875,0.34057 2.1875,1.08398 0,0.1807 -0.78506,0.32813 -1.74414,0.32813 -0.9591,0 -1.46113,-0.45791 -1.11524,-1.01758 0.1333,-0.21568 0.37888,-0.34125 0.67188,-0.39453 z m -48.78516,9.61718 c 0.32561,-0.0853 0.7755,-0.045 1.26953,0.14454 0.98807,0.37916 1.79688,0.90127 1.79688,1.16015 0,0.25888 -0.80881,0.47071 -1.79688,0.4707 -0.98807,2e-5 -1.79687,-0.52211 -1.79687,-1.16015 0,-0.31902 0.20173,-0.52992 0.52734,-0.61524 z m 10.92188,5.36915 c 0.29048,0 0.52734,0.53854 0.52734,1.19726 0,0.65871 -0.56999,1.19727 -1.26758,1.19727 -0.69759,0 -0.9364,-0.53856 -0.5293,-1.19727 0.40711,-0.65872 0.97906,-1.19726 1.26954,-1.19726 z m 4.02148,25.29882 c 0.41606,0.0171 0.77366,0.12719 0.97266,0.32618 0.39797,0.39798 -0.30975,0.6809 -1.57227,0.6289 -1.39522,-0.0575 -1.67807,-0.34229 -0.72266,-0.72461 0.43228,-0.173 0.90621,-0.2476 1.32227,-0.23047 z M 534.69922,700.48242 h 1.14258 c 0.0249,7.51304 0.11132,10.72709 0.11132,20.33203 v 27.76563 c -0.16382,-0.27039 -0.39787,-0.52088 -0.77539,-0.75586 -1.27461,-0.79337 -1.31949,-1.49481 -0.21289,-3.28125 0.97394,-1.57228 1.07179,-3.70423 0.31836,-6.92383 -0.58618,-2.50479 -0.83418,-19.13625 -0.58398,-37.13672 z m 19.79883,28.9043 c 0.66946,-0.41374 1.21679,0.0883 1.21679,1.11523 0,2.10373 -0.7194,2.41316 -1.74609,0.75196 -0.37897,-0.6132 -0.14015,-1.45345 0.5293,-1.86719 z m 88.03125,7.14453 c 0.20096,0.0839 0.21741,0.30312 0.008,0.64258 -0.40244,0.65117 -1.23955,1.18359 -1.85938,1.18359 -1.72276,0 -1.34242,-0.85809 0.73243,-1.6543 0.53294,-0.20447 0.91818,-0.2558 1.11914,-0.17187 z m 23.09375,60.70703 c 0.38924,-0.14821 0.72187,-0.14725 0.90625,0.0371 0.36874,0.36875 -0.29541,1.03852 -1.47657,1.48828 -1.7069,0.64995 -1.84393,0.51096 -0.66992,-0.67187 0.40622,-0.40926 0.85099,-0.7053 1.24024,-0.85352 z m 30.57031,55.3457 c 0.21707,-0.0957 0.51634,-0.0532 0.8457,0.1504 0.65871,0.4071 1.19727,0.97709 1.19727,1.26757 0,0.29048 -0.53856,0.5293 -1.19727,0.5293 -0.65872,0 -1.19726,-0.57194 -1.19726,-1.26953 0,-0.3488 0.13448,-0.58201 0.35156,-0.67774 z" />
    <path
       style="fill:#0bb2a1;fill-opacity:1;stroke:#ffffff;stroke-width:4.101;stroke-dasharray:none;stroke-opacity:1"
       d="m 346.7311,873.31681 c -14.56418,-0.7561 -20.36761,-1.68822 -21.4522,-3.44555 -3.1886,-5.16643 -3.7109,-45.91618 -4.00706,-312.62811 -0.34852,-313.86977 0.10628,-388.59584 2.41984,-397.59035 1.22964,-4.7805 2.75715,-6.65034 6.22647,-7.62187 2.52841,-0.70804 22.82736,-1.28734 45.10877,-1.28734 h 40.51166 l 3.65845,11.85623 c 7.98284,25.87062 17.84524,39.3029 40.51417,55.17906 24.59823,17.22734 64.48172,19.752 93.59783,5.92482 24.40942,-11.59198 47.82474,-40.15484 52.17461,-63.6445 l 1.72508,-9.31561 h 43.76571 c 43.55831,0 43.78058,0.0184 46.90149,3.87504 3.01581,3.72681 3.15397,13.57486 3.61173,257.44972 0.26177,139.46607 0.4282,261.95874 0.36982,272.20591 -0.0584,10.24718 -0.23965,55.17995 -0.40283,99.85061 -0.29469,80.67652 -0.32111,81.24537 -3.95253,85.11084 -3.62983,3.86378 -3.96577,3.89147 -47.20574,3.89147 h -43.54989 l -1.3788,-8.0453 c -0.75832,-4.42492 -1.41651,-8.80749 -1.46262,-9.73905 -0.0461,-0.93156 -0.46493,-2.07484 -0.93071,-2.54063 -0.46578,-0.46578 -2.37125,-3.86443 -4.23437,-7.55257 -9.44529,-18.69737 -25.80414,-34.36676 -46.57808,-44.615 -12.61854,-6.22502 -12.87619,-6.27238 -38.69892,-7.11361 -14.29769,-0.46578 -26.27724,-0.38829 -26.62122,0.1722 -0.34398,0.5605 -4.27069,2.40601 -8.72603,4.10111 -13.02163,4.95433 -24.24468,12.66083 -36.37407,24.97689 -13.85648,14.06973 -18.78117,23.70927 -23.99542,46.96847 l -0.94926,4.23437 -25.05025,0.18963 c -13.77764,0.10428 -34.03467,-0.27681 -45.01563,-0.84688 z"
       id="path12" />
    <path
       style="fill:#0b2344;fill-opacity:1;stroke:#ffffff;stroke-width:0;stroke-dasharray:none;stroke-opacity:1"
       d="m 318.42466,901.38984 c -8.62914,-2.73509 -20.89092,-15.72479 -24.30674,-25.74966 -2.64176,-7.75313 -2.85101,-34.97783 -2.80891,-365.45667 0.0505,-396.58511 -0.9749,-363.14012 11.53118,-376.09749 13.21479,-13.69166 13.57589,-13.76577 69.89892,-14.34438 27.54405,-0.28296 53.76054,0.10256 58.25887,0.85671 11.17735,1.8739 14.09652,6.19892 16.11213,23.87161 2.76289,24.22472 15.0494,41.58321 37.09667,52.41047 8.55971,4.20361 11.3161,4.6756 27.30517,4.6756 16.25024,0 18.65912,-0.42949 27.92523,-4.97897 20.43202,-10.03173 33.37236,-28.10873 36.56785,-51.08345 0.98946,-7.11388 2.4287,-14.59059 3.19834,-16.6149 3.23034,-8.49639 3.80792,-8.58462 60.15709,-9.18874 34.78255,-0.37291 55.16452,0.0685 59.71303,1.29333 11.64093,3.13458 22.63764,11.76796 27.90568,21.9084 l 4.72004,9.08558 v 359.78248 c 0,301.42618 -0.37772,360.68649 -2.32873,365.35595 -3.66738,8.77722 -12.97918,18.21397 -22.21829,22.51641 -8.34408,3.88565 -9.38831,3.94971 -64.64764,3.96598 l -56.16655,0.0165 -4.13806,-4.9178 c -3.1779,-3.77672 -4.57207,-8.28002 -6.00858,-19.40815 -2.2062,-17.0909 -6.16038,-25.6071 -17.415,-37.50721 -15.63055,-16.52702 -38.0629,-23.47741 -60.604,-18.77746 -15.47244,3.22609 -24.43538,8.39316 -35.43408,20.4275 -9.70854,10.62269 -14.55849,21.88783 -16.30859,37.8805 -1.44449,13.19998 -3.52284,17.9893 -8.86226,20.4221 -5.6291,2.56479 -110.92472,2.26051 -119.14277,-0.34429 z m 103.3416,-35.14586 c 5.55035,-26.15446 24.90435,-49.71812 51.34928,-62.5182 l 14.08447,-6.81726 h 23.10614 c 25.6801,0 32.11774,1.46568 48.43051,11.02633 20.17961,11.82694 40.68056,37.8726 43.31488,55.02984 2.36544,15.40602 -2.66409,14.00464 47.24872,13.16481 24.35928,-0.40985 45.64462,-1.34271 47.30073,-2.07303 1.65611,-0.73031 3.94267,-2.95308 5.08124,-4.93949 1.60217,-2.79524 2.19508,-67.55186 2.62291,-286.46761 0.30403,-155.57077 0.0216,-315.1849 -0.62771,-354.69806 l -1.18047,-71.84212 -3.95312,-3.95311 c -3.94256,-3.94256 -4.07279,-3.95311 -48.79435,-3.95311 h -44.84122 l -1.92318,9.26391 c -2.89492,13.94472 -10.7562,28.08019 -22.92768,41.2265 -12.42198,13.41688 -22.8633,20.6881 -37.34786,26.00864 -8.27157,3.03835 -13.73013,3.68963 -31.1976,3.72229 -18.21428,0.0341 -22.59149,-0.51296 -31.33434,-3.91584 -29.67444,-11.54981 -49.82894,-34.22464 -59.26179,-66.67248 l -2.84517,-9.78704 -45.53088,0.50044 c -40.50591,0.44522 -45.85425,0.82412 -48.46091,3.43322 -2.24894,2.25105 -3.21916,7.36928 -4.17392,22.01873 -1.61452,24.77262 -1.61811,612.67241 -0.004,659.58738 0.86049,25.01108 1.88665,36.62112 3.3977,38.44181 2.82674,3.40603 8.59726,3.83536 56.29298,4.18823 l 39.99508,0.29592 z"
       id="path13" />
  </g>
</svg>
